<svg version="1.1" id="Layer_1" xmlns="http://www.w3.org/2000/svg" xmlns:xlink="http://www.w3.org/1999/xlink" x="0px" y="0px"
	 width="100%" viewBox="0 0 125 125" enable-background="new 0 0 125 125" xml:space="preserve">
<path fill="#666666" opacity="1.000000" stroke="none" 
	d="
M98.000000,126.000000 
	C95.299370,126.000000 92.598747,126.000000 89.448975,125.575226 
	C89.535172,120.784866 87.974281,118.521248 83.213074,118.946922 
	C79.469727,119.281601 77.794983,117.186317 77.749336,113.550240 
	C77.744507,113.165001 77.225357,112.786224 76.872322,112.305794 
	C75.631363,112.714340 74.456993,113.100960 73.334793,113.470413 
	C70.549362,108.166595 64.032280,103.845612 59.786263,105.455093 
	C54.588860,107.425186 48.527740,102.939964 44.019997,107.640991 
	C44.452198,105.453392 45.817326,103.015968 45.108810,101.923965 
	C43.200489,98.982750 40.407631,96.615433 37.736622,93.751984 
	C37.340042,92.322678 37.172710,91.161705 37.006477,89.750366 
	C37.006672,89.333069 37.005764,89.166153 37.014877,88.762390 
	C37.024906,88.525551 37.029034,88.051460 37.355846,88.050827 
	C38.461338,88.356186 39.240013,88.662170 40.202026,89.197685 
	C42.911297,91.251381 43.747753,96.543991 48.772243,93.451721 
	C49.124565,93.234894 50.508686,94.730698 51.433784,95.401466 
	C53.902786,97.191666 56.160084,99.577316 58.918423,100.584076 
	C61.995571,101.707199 65.532051,101.571861 69.401566,102.050148 
	C72.274292,94.733643 78.918724,104.061295 83.579918,99.244263 
	C81.178894,108.146187 89.202309,108.078804 92.683800,111.629929 
	C95.156715,109.383301 97.561272,107.198784 99.919930,105.356644 
	C99.600967,106.817230 99.327904,107.935432 99.046600,109.416550 
	C98.922722,115.201057 95.497490,120.410797 98.000000,126.000000 
z"/>
<path fill="#6B6B6B" opacity="1.000000" stroke="none" 
	d="
M44.007275,108.004715 
	C48.527740,102.939964 54.588860,107.425186 59.786263,105.455093 
	C64.032280,103.845612 70.549362,108.166595 73.334793,113.470413 
	C74.456993,113.100960 75.631363,112.714340 76.872322,112.305794 
	C77.225357,112.786224 77.744507,113.165001 77.749336,113.550240 
	C77.794983,117.186317 79.469727,119.281601 83.213074,118.946922 
	C87.974281,118.521248 89.535172,120.784866 88.999924,125.575226 
	C76.979103,126.000000 64.958214,126.000000 52.451820,125.627205 
	C50.641399,123.169815 49.316479,121.085213 47.875450,118.746506 
	C47.504738,117.995033 47.250126,117.497665 47.318329,116.941986 
	C50.674313,113.816963 49.164738,110.543343 44.004730,108.749176 
	C44.004974,108.501022 44.007275,108.004715 44.007275,108.004715 
z"/>
<path fill="#0D0D0D" opacity="1.000000" stroke="none" 
	d="
M126.000000,11.000000 
	C126.000000,13.700629 126.000000,16.401258 125.643051,19.570803 
	C124.180496,20.440022 123.074898,20.840326 121.628098,21.195549 
	C120.829742,21.111712 120.372574,21.072954 119.842209,20.851091 
	C119.451378,20.745596 119.133751,20.823208 118.413506,20.983383 
	C116.751915,21.373699 115.505112,21.876978 114.231918,21.956232 
	C107.840462,22.354099 101.441696,22.897478 95.046280,22.887594 
	C89.733376,22.879383 84.421555,22.174486 79.071945,21.438005 
	C77.364571,18.435211 75.694511,15.772620 74.437027,13.064045 
	C77.230858,12.700246 79.612114,12.382429 82.459412,12.115258 
	C89.228188,11.832860 95.527397,11.359339 101.834496,11.202004 
	C109.886330,11.001144 117.944542,11.055592 126.000000,11.000000 
z"/>
<path fill="#5C5C5C" opacity="1.000000" stroke="none" 
	d="
M105.000000,126.000000 
	C103.933327,126.000000 102.866661,126.000000 101.448364,125.687317 
	C101.388603,124.584763 101.680458,123.794884 102.188911,122.800827 
	C102.583725,122.039238 102.761932,121.481834 102.941757,120.533783 
	C102.980049,119.102097 103.016724,118.061066 103.375778,116.908783 
	C104.128433,113.202110 104.580956,109.609146 104.982056,106.010460 
	C105.311043,103.058739 103.937622,101.729927 101.011673,101.626602 
	C101.756134,96.119209 105.413376,97.702591 109.309181,97.395172 
	C107.872414,95.596474 106.435654,93.797783 105.090965,91.666824 
	C106.773178,90.563499 108.363319,89.792435 110.202637,89.020920 
	C110.451813,89.020470 110.946381,88.959122 111.080307,89.157028 
	C111.413002,89.611603 111.659508,89.808510 112.005539,90.275497 
	C112.673203,91.763290 113.289078,92.921234 114.082024,94.366837 
	C117.698563,98.205849 118.707771,104.293060 125.219933,104.931396 
	C125.653358,104.968773 125.826675,104.984383 126.000000,105.000000 
	C126.000000,107.700012 126.000000,110.400032 125.650696,113.535080 
	C125.030533,115.333908 124.759666,116.697701 124.576141,118.456665 
	C125.108986,120.567902 125.554497,122.283951 126.000000,124.000000 
	C125.560112,124.666664 125.183807,125.844261 124.668922,125.908348 
	C122.800896,126.140831 120.886421,126.000000 118.561775,125.635742 
	C121.394363,118.818375 122.166458,112.846313 119.805740,109.556480 
	C118.879959,111.321144 118.345070,113.152031 117.177734,114.383347 
	C115.229378,116.438522 113.124512,119.079048 110.635735,119.716225 
	C106.902008,120.672127 105.298584,122.477539 105.000000,126.000000 
z"/>
<path fill="#9E9E9E" opacity="1.000000" stroke="none" 
	d="
M126.000000,10.550020 
	C117.944542,11.055592 109.886330,11.001144 101.834496,11.202004 
	C95.527397,11.359339 89.228188,11.832860 82.478569,11.735340 
	C83.008591,8.275653 83.985512,5.246530 85.428719,2.147368 
	C99.263329,2.051553 112.631668,2.025776 126.000000,2.000000 
	C126.000000,4.700014 126.000000,7.400028 126.000000,10.550020 
z"/>
<path fill="#555555" opacity="1.000000" stroke="none" 
	d="
M126.000000,28.000000 
	C126.000000,31.030594 126.000000,34.061188 125.626564,37.540352 
	C124.506195,37.987129 123.759262,37.985336 123.007080,37.588425 
	C122.667274,35.129242 122.332718,33.065182 121.972214,30.635536 
	C120.871529,29.711151 119.694603,28.534128 118.738342,28.692177 
	C111.620705,29.868570 104.504517,31.124617 97.473694,32.731228 
	C92.585106,33.848316 87.832672,35.561237 82.961151,36.721226 
	C82.598167,35.950653 82.293442,35.466831 81.949448,34.657761 
	C81.916847,33.896225 81.923523,33.459938 82.308960,32.955681 
	C90.059959,30.686430 97.335777,28.033287 104.836235,26.432928 
	C110.409805,25.243706 116.274681,25.419706 122.148895,25.275087 
	C123.176491,26.374746 124.064980,27.186943 125.215103,28.001427 
	C125.651154,28.002474 125.825577,28.001236 126.000000,28.000000 
z"/>
<path fill="#C5C5C5" opacity="1.000000" stroke="none" 
	d="
M1.000000,114.000000 
	C1.000000,111.957680 1.000000,109.915367 1.286487,107.443390 
	C1.763656,107.001953 1.954338,106.990173 2.493642,106.919533 
	C6.142506,107.253571 9.442749,107.646469 12.789684,108.370049 
	C12.911695,109.138100 12.987015,109.575470 13.022724,110.346558 
	C13.005919,111.127808 13.028724,111.575340 12.749330,112.302513 
	C12.243625,115.731071 12.040119,118.879997 11.392586,122.015045 
	C7.632372,122.000786 4.316186,122.000397 1.000000,122.000000 
	C1.000000,121.250000 1.000000,120.500000 1.234863,119.120255 
	C1.313151,116.993675 1.156575,115.496834 1.000000,114.000000 
z"/>
<path fill="#6E6E6E" opacity="1.000000" stroke="none" 
	d="
M39.000000,126.000000 
	C37.933212,126.000000 36.866425,126.000000 35.344215,125.661835 
	C34.580555,124.226631 34.272308,123.129578 33.975060,121.631538 
	C32.977608,119.167198 31.969154,117.103851 30.948357,114.795082 
	C30.936010,114.549660 30.935865,114.058189 30.956839,113.646400 
	C30.685938,106.818008 30.261606,100.401855 30.239691,93.984329 
	C30.236258,92.978729 32.060951,91.966888 33.038895,90.965263 
	C33.037460,90.972595 33.065765,90.960350 33.048248,91.386551 
	C34.030109,97.536011 35.029491,103.259270 36.022934,109.409653 
	C37.011333,115.224518 38.005669,120.612259 39.000000,126.000000 
z"/>
<path fill="#5F5F5F" opacity="1.000000" stroke="none" 
	d="
M126.000000,77.000000 
	C126.000000,79.700630 126.000000,82.401253 125.596405,85.530083 
	C122.076057,85.976601 118.959320,85.994919 115.537994,86.025574 
	C114.827217,86.027489 114.421013,86.017082 114.025894,85.690781 
	C114.024719,84.249275 114.012474,83.123665 113.995941,81.622734 
	C113.991852,80.495529 113.992050,79.743645 114.258141,78.780594 
	C115.344666,77.041443 116.165298,75.513435 117.334442,73.980881 
	C120.077354,74.972366 122.471748,75.968399 125.149490,76.977005 
	C125.621895,76.993050 125.810951,76.996529 126.000000,77.000000 
z"/>
<path fill="#E3E6E8" opacity="1.000000" stroke="none" 
	d="
M126.000000,1.500000 
	C112.631668,2.025776 99.263329,2.051553 84.965286,2.096579 
	C76.685333,2.171035 69.335083,2.226241 61.526382,2.214435 
	C57.036976,2.167810 53.006008,2.188197 48.514877,2.125945 
	C41.710533,2.063865 35.366352,2.084424 28.556141,2.047856 
	C19.458960,2.028883 10.827812,2.067038 1.897772,2.075778 
	C1.399253,2.030909 1.199627,2.015455 1.000000,2.000000 
	C2.333333,1.666667 3.666296,1.043774 5.000054,1.042066 
	C45.333321,0.990425 85.666664,1.000000 126.000000,1.500000 
z"/>
<path fill="#464646" opacity="1.000000" stroke="none" 
	d="
M105.463181,126.000000 
	C105.298584,122.477539 106.902008,120.672127 110.635735,119.716225 
	C113.124512,119.079048 115.229378,116.438522 117.177734,114.383347 
	C118.345070,113.152031 118.879959,111.321144 119.805740,109.556480 
	C122.166458,112.846313 121.394363,118.818375 118.067047,125.635742 
	C113.975456,126.000000 109.950912,126.000000 105.463181,126.000000 
z"/>
<path fill="#D4D4D4" opacity="1.000000" stroke="none" 
	d="
M1.000000,2.468657 
	C1.199627,2.015455 1.399253,2.030909 2.034384,2.432840 
	C2.332274,7.571322 2.194659,12.323328 2.025290,17.520241 
	C2.167882,20.917648 2.342227,23.870148 2.440088,27.455040 
	C2.374108,28.511971 2.384612,28.936506 2.534431,29.324699 
	C2.673747,29.288355 2.727249,29.682032 2.727249,29.682032 
	C2.727249,29.682032 2.424124,29.696299 2.420576,30.224403 
	C2.520339,32.498909 2.623649,34.245308 2.590381,36.327766 
	C2.442138,37.387585 2.430475,38.111355 2.295767,39.297665 
	C2.447269,53.505238 2.721814,67.250267 2.892171,81.414886 
	C2.756567,82.692833 2.725149,83.551193 2.729692,84.398773 
	C2.765653,84.387985 2.699277,84.350838 2.478410,84.694626 
	C2.217541,86.673386 2.177541,88.308372 2.063829,90.314690 
	C2.026108,91.441040 2.062099,92.196060 2.061154,93.369415 
	C2.085087,95.456856 2.145956,97.125954 2.169258,99.250656 
	C2.136135,102.130310 2.140578,104.554352 2.145021,106.978401 
	C1.954338,106.990173 1.763656,107.001953 1.286487,107.006866 
	C1.000000,72.312439 1.000000,37.624878 1.000000,2.468657 
z"/>
<path fill="#666666" opacity="1.000000" stroke="none" 
	d="
M27.000000,126.000000 
	C25.611002,126.000000 24.222006,126.000000 22.394974,125.644119 
	C20.300943,122.525711 18.644949,119.763176 17.334497,117.055450 
	C18.973419,116.871323 20.266800,116.632370 21.560181,116.393417 
	C21.185061,114.855965 21.135378,113.110176 20.328201,111.849297 
	C19.721161,110.901039 18.142042,110.575081 16.974981,109.574776 
	C16.971409,106.116386 16.988506,103.055313 17.355389,100.123940 
	C20.161236,106.164894 22.583065,112.090897 25.113543,117.970131 
	C25.457870,118.770126 26.345518,119.336273 26.982845,120.438370 
	C26.989399,122.577362 26.994699,124.288681 27.000000,126.000000 
z"/>
<path fill="#666666" opacity="1.000000" stroke="none" 
	d="
M39.463184,126.000000 
	C38.005669,120.612259 37.011333,115.224518 36.359081,109.512787 
	C37.611839,111.019173 38.647144,112.799362 39.408680,114.689819 
	C41.322342,119.440369 44.340912,121.009293 47.991554,119.000618 
	C49.316479,121.085213 50.641399,123.169815 51.983162,125.627205 
	C47.975456,126.000000 43.950912,126.000000 39.463184,126.000000 
z"/>
<path fill="#6B6B6B" opacity="1.000000" stroke="none" 
	d="
M16.988955,117.000641 
	C18.644949,119.763176 20.300943,122.525711 21.978470,125.644119 
	C18.969406,126.000000 15.938813,126.000000 12.446598,125.602280 
	C11.935521,124.146004 11.886067,123.087463 11.836614,122.028915 
	C12.040119,118.879997 12.243625,115.731071 12.998053,112.510269 
	C14.695635,113.959145 15.842295,115.479889 16.988955,117.000641 
z"/>
<path fill="#464646" opacity="1.000000" stroke="none" 
	d="
M124.866135,76.964432 
	C122.471748,75.968399 120.077354,74.972366 117.326317,73.630791 
	C116.628311,72.181923 116.286949,71.078590 115.983070,69.609283 
	C119.044525,67.805931 122.068481,66.368568 125.318710,64.956558 
	C125.544983,64.981911 126.000000,65.000000 126.000000,65.000000 
	C126.000000,67.041664 126.000000,69.083336 125.751480,71.836472 
	C125.290680,74.020111 125.078407,75.492271 124.866135,76.964432 
z"/>
<path fill="#3B3B3B" opacity="1.000000" stroke="none" 
	d="
M101.972305,123.005013 
	C101.680458,123.794884 101.388603,124.584763 101.048370,125.687317 
	C100.250000,126.000000 99.500000,126.000000 98.375000,126.000000 
	C95.497490,120.410797 98.922722,115.201057 99.444672,109.406982 
	C105.499802,109.859093 101.950264,114.372490 103.053406,117.020027 
	C103.016724,118.061066 102.980049,119.102097 102.686981,120.601151 
	C102.277832,121.707779 102.125069,122.356400 101.972305,123.005013 
z"/>
<path fill="#3B3B3B" opacity="1.000000" stroke="none" 
	d="
M114.014816,86.006676 
	C114.421013,86.017082 114.827217,86.027489 115.577278,86.454247 
	C115.394325,90.202728 117.008514,91.275215 120.118416,91.029175 
	C122.067513,90.874969 124.038719,91.000168 126.000000,91.000000 
	C126.000000,95.356903 126.000000,99.713799 126.000000,104.535355 
	C125.826675,104.984383 125.653358,104.968773 125.228088,104.478729 
	C124.970627,101.377914 125.204353,98.718414 124.847649,96.140617 
	C124.694511,95.033974 123.335709,93.257095 122.488831,93.236176 
	C119.636230,93.165688 116.767509,93.747116 113.904961,94.079178 
	C113.289078,92.921234 112.673203,91.763290 112.036774,90.045021 
	C111.659607,89.309509 111.302994,89.134315 110.946381,88.959122 
	C110.946381,88.959122 110.451813,89.020470 110.212402,88.636505 
	C109.995613,87.229424 110.018250,86.206299 110.334534,85.143127 
	C111.757065,85.404266 112.885941,85.705475 114.014816,86.006676 
z"/>
<path fill="#5F5F5F" opacity="1.000000" stroke="none" 
	d="
M123.012329,37.983543 
	C123.759262,37.985336 124.506195,37.987129 125.626564,37.994461 
	C126.000000,45.354252 126.000000,52.708500 125.807770,60.660828 
	C125.371956,61.455353 125.172150,61.689209 124.755013,61.840302 
	C123.988647,61.446442 123.483391,61.172764 123.010788,60.493179 
	C123.023102,53.397499 123.002754,46.707714 122.987000,39.678974 
	C122.998505,38.887856 123.005417,38.435699 123.012329,37.983543 
z"/>
<path fill="#555555" opacity="1.000000" stroke="none" 
	d="
M27.444164,126.000000 
	C26.994699,124.288681 26.989399,122.577362 26.994339,120.065826 
	C28.008131,117.524147 29.011681,115.782677 30.245384,114.045670 
	C30.475538,114.050133 30.935865,114.058189 30.935865,114.058189 
	C30.935865,114.058189 30.936010,114.549660 30.951290,115.163086 
	C30.965101,116.514557 30.963636,117.252602 30.781576,118.196426 
	C31.065077,119.270782 31.529173,120.139366 32.191021,121.213966 
	C32.913872,121.624168 33.438969,121.828346 33.964066,122.032532 
	C34.272308,123.129578 34.580555,124.226631 34.944397,125.661835 
	C32.629440,126.000000 30.258884,126.000000 27.444164,126.000000 
z"/>
<path fill="#787878" opacity="1.000000" stroke="none" 
	d="
M126.000000,90.583336 
	C124.038719,91.000168 122.067513,90.874969 120.118416,91.029175 
	C117.008514,91.275215 115.394325,90.202728 115.881859,86.441910 
	C118.959320,85.994919 122.076057,85.976601 125.596405,85.979141 
	C126.000000,87.388893 126.000000,88.777779 126.000000,90.583336 
z"/>
<path fill="#D4D4D4" opacity="1.000000" stroke="none" 
	d="
M11.392586,122.015045 
	C11.886067,123.087463 11.935521,124.146004 11.992488,125.602280 
	C8.333154,126.000000 4.666308,126.000000 1.000000,126.000000 
	C1.000000,124.931023 1.000000,123.965500 1.000000,122.499992 
	C4.316186,122.000397 7.632372,122.000786 11.392586,122.015045 
z"/>
<path fill="#464646" opacity="1.000000" stroke="none" 
	d="
M124.953468,27.999138 
	C124.064980,27.186943 123.176491,26.374746 122.147217,24.899315 
	C121.994064,23.237597 121.981682,22.239115 121.969299,21.240633 
	C123.074898,20.840326 124.180496,20.440022 125.643051,20.019859 
	C126.000000,22.041666 126.000000,24.083334 125.797249,26.697866 
	C125.328987,27.467913 125.115311,27.710714 124.953468,27.999138 
z"/>
<path fill="#ACACAC" opacity="1.000000" stroke="none" 
	d="
M124.488800,118.061485 
	C124.759666,116.697701 125.030533,115.333908 125.650696,113.985062 
	C126.000000,115.066673 126.000000,116.133339 125.622292,117.617584 
	C124.992653,118.043938 124.740730,118.052711 124.488800,118.061485 
z"/>
<path fill="#C6C6C6" opacity="1.000000" stroke="none" 
	d="
M124.576141,118.456665 
	C124.740730,118.052711 124.992653,118.043938 125.622292,118.017578 
	C126.000000,119.714355 126.000000,121.428719 126.000000,123.571533 
	C125.554497,122.283951 125.108986,120.567902 124.576141,118.456665 
z"/>
<path fill="#666666" opacity="1.000000" stroke="none" 
	d="
M125.149490,76.977005 
	C125.078407,75.492271 125.290680,74.020111 125.751480,72.273972 
	C126.000000,73.388893 126.000000,74.777779 126.000000,76.583336 
	C125.810951,76.996529 125.621895,76.993050 125.149490,76.977005 
z"/>
<path fill="#D4D4D4" opacity="1.000000" stroke="none" 
	d="
M1.000000,114.416664 
	C1.156575,115.496834 1.313151,116.993675 1.234863,118.745255 
	C1.000000,117.611107 1.000000,116.222221 1.000000,114.416664 
z"/>
<path fill="#666666" opacity="1.000000" stroke="none" 
	d="
M125.016121,61.960480 
	C125.172150,61.689209 125.371956,61.455353 125.807770,61.129456 
	C126.000000,62.066669 126.000000,63.133343 126.000000,64.600006 
	C126.000000,65.000000 125.544983,64.981911 125.303040,64.585693 
	C125.046104,63.446476 125.031113,62.703480 125.016121,61.960480 
z"/>
<path fill="#666666" opacity="1.000000" stroke="none" 
	d="
M125.215103,28.001427 
	C125.115311,27.710714 125.328987,27.467913 125.797249,27.135366 
	C126.000000,27.000000 126.000000,27.500000 126.000000,27.750000 
	C125.825577,28.001236 125.651154,28.002474 125.215103,28.001427 
z"/>
<path fill="#606060" opacity="1.000000" stroke="none" 
	d="
M104.998894,91.999084 
	C106.435654,93.797783 107.872414,95.596474 109.309181,97.395172 
	C105.413376,97.702591 101.756134,96.119209 100.792358,101.871353 
	C100.359589,103.323845 100.162704,104.169044 99.965820,105.014252 
	C97.561272,107.198784 95.156715,109.383301 92.683800,111.629929 
	C89.202309,108.078804 81.178894,108.146187 83.579918,99.244263 
	C78.918724,104.061295 72.274292,94.733643 69.401566,102.050148 
	C65.532051,101.571861 61.995571,101.707199 58.918423,100.584076 
	C56.160084,99.577316 53.902786,97.191666 51.433784,95.401466 
	C50.508686,94.730698 49.124565,93.234894 48.772243,93.451721 
	C43.747753,96.543991 42.911297,91.251381 40.633083,89.202370 
	C45.591908,89.655983 50.303013,90.334450 55.339081,91.168793 
	C58.811085,92.072227 61.949070,93.375343 65.107452,93.426804 
	C69.061058,93.491226 73.031425,92.527481 77.037476,92.091110 
	C77.080391,92.174683 77.304016,92.186752 77.304016,92.186752 
	C77.304016,92.186752 77.007439,91.994560 77.059204,91.653442 
	C77.403717,90.202316 77.696457,89.092308 78.320328,87.997421 
	C79.435547,88.343910 80.219643,88.675270 81.003891,89.255959 
	C81.004044,89.505280 80.998077,90.003883 81.243546,90.264130 
	C82.639496,91.151573 83.732529,91.936279 84.949844,92.380173 
	C92.339859,95.074921 92.343834,95.048355 91.447250,102.915009 
	C91.423119,103.126793 91.835938,103.388382 92.801651,104.489494 
	C94.295151,102.542198 95.649292,100.776596 97.001724,99.005951 
	C97.000000,99.000900 97.007660,99.004578 97.329422,98.950005 
	C98.767464,97.930290 99.883736,96.965149 101.225487,95.758011 
	C102.633614,94.343704 103.816254,93.171394 104.998894,91.999084 
M73.017921,93.473572 
	C73.256531,93.577751 73.490028,93.700211 73.738358,93.769585 
	C73.784119,93.782372 73.889931,93.580215 73.968025,93.477264 
	C73.719208,93.395416 73.470383,93.313576 73.017921,93.473572 
z"/>
<path fill="#515151" opacity="1.000000" stroke="none" 
	d="
M55.014122,91.012909 
	C50.303013,90.334450 45.591908,89.655983 40.449745,88.972839 
	C39.240013,88.662170 38.461338,88.356186 37.343479,87.675552 
	C36.858749,85.858986 36.713203,84.417076 36.550972,82.809921 
	C37.633858,82.565010 38.654030,82.334274 39.703846,82.096840 
	C39.445984,79.903229 39.219234,77.974297 39.397717,76.034996 
	C45.424606,77.090004 44.923058,71.805061 47.222954,69.100967 
	C47.685749,69.041748 47.870991,69.019180 48.326538,69.108070 
	C49.043335,69.815399 49.489830,70.411263 50.000237,71.447144 
	C50.050514,74.257904 50.036880,76.628632 49.980488,79.369934 
	C52.969376,82.462364 56.001022,85.184242 58.786411,88.141357 
	C57.364807,89.255371 56.189465,90.134140 55.014122,91.012909 
z"/>
<path fill="#5F5F5F" opacity="1.000000" stroke="none" 
	d="
M47.875450,118.746506 
	C44.340912,121.009293 41.322342,119.440369 39.408680,114.689819 
	C38.647144,112.799362 37.611839,111.019173 36.365021,109.085663 
	C35.029491,103.259270 34.030109,97.536011 33.381336,91.518394 
	C34.591251,93.309868 35.450558,95.395699 36.309864,97.481522 
	C36.652275,97.462463 36.994686,97.443405 37.337097,97.424347 
	C37.546684,96.289673 37.756275,95.154999 37.965866,94.020325 
	C40.407631,96.615433 43.200489,98.982750 45.108810,101.923965 
	C45.817326,103.015968 44.452198,105.453392 44.019997,107.640991 
	C44.007275,108.004715 44.004974,108.501022 44.002388,109.162643 
	C44.998375,112.216286 45.996944,114.608292 46.995518,117.000305 
	C47.250126,117.497665 47.504738,117.995033 47.875450,118.746506 
z"/>
<path fill="#4D4D4D" opacity="1.000000" stroke="none" 
	d="
M37.736618,93.751984 
	C37.756275,95.154999 37.546684,96.289673 37.337097,97.424347 
	C36.994686,97.443405 36.652275,97.462463 36.309864,97.481522 
	C35.450558,95.395699 34.591251,93.309868 33.398857,91.092194 
	C33.065765,90.960350 33.037460,90.972595 33.038246,90.597374 
	C33.020412,89.484413 33.001793,88.746674 32.990559,87.619621 
	C32.997944,85.353058 32.997944,83.475807 32.997944,80.739792 
	C30.913534,82.505676 29.456430,83.740112 27.589863,84.978584 
	C24.048826,85.649155 20.917253,86.315697 17.581520,86.770576 
	C16.928179,85.696785 16.479000,84.834663 16.023359,83.641129 
	C15.721867,82.509865 15.426838,81.710007 15.114981,80.530640 
	C15.096397,79.143501 15.094644,78.135895 15.392918,77.287445 
	C20.984636,81.375427 26.409853,82.000168 32.375824,78.023590 
	C34.523060,77.277634 36.312149,76.614410 38.324089,75.974380 
	C38.546936,75.997574 38.992489,76.045364 38.992489,76.045364 
	C39.219234,77.974297 39.445984,79.903229 39.703846,82.096840 
	C38.654030,82.334274 37.633858,82.565010 36.550972,82.809921 
	C36.713203,84.417076 36.858749,85.858986 37.016666,87.676178 
	C37.029034,88.051460 37.024906,88.525551 36.895256,88.867355 
	C36.606697,89.529373 36.686623,89.793236 37.005375,90.000740 
	C37.172710,91.161705 37.340042,92.322678 37.736618,93.751984 
z"/>
<path fill="#515151" opacity="1.000000" stroke="none" 
	d="
M99.919922,105.356636 
	C100.162704,104.169044 100.359589,103.323845 100.775795,102.233894 
	C103.937622,101.729927 105.311043,103.058739 104.982056,106.010460 
	C104.580956,109.609146 104.128433,113.202110 103.375778,116.908783 
	C101.950264,114.372490 105.499802,109.859093 99.452904,109.044075 
	C99.327904,107.935432 99.600967,106.817230 99.919922,105.356636 
z"/>
<path fill="#515151" opacity="1.000000" stroke="none" 
	d="
M37.006477,89.750366 
	C36.686623,89.793236 36.606697,89.529373 36.885231,89.104195 
	C37.005764,89.166153 37.006672,89.333069 37.006477,89.750366 
z"/>
<path fill="#666666" opacity="1.000000" stroke="none" 
	d="
M47.318329,116.941986 
	C45.996944,114.608292 44.998375,112.216286 44.002144,109.410797 
	C49.164738,110.543343 50.674313,113.816963 47.318329,116.941986 
z"/>
<path fill="#4D4D4D" opacity="1.000000" stroke="none" 
	d="
M121.628098,21.195553 
	C121.981682,22.239115 121.994064,23.237597 122.008118,24.611851 
	C116.274681,25.419706 110.409805,25.243706 104.836235,26.432928 
	C97.335777,28.033287 90.059959,30.686430 82.299576,32.568897 
	C81.969734,28.892591 80.535683,26.946684 76.779495,26.775768 
	C75.766006,25.616440 74.938591,24.702587 74.103760,23.446682 
	C73.972549,22.215004 73.848763,21.325377 74.079514,20.329872 
	C75.992447,20.742065 77.550850,21.260138 79.109253,21.778208 
	C84.421555,22.174486 89.733376,22.879383 95.046280,22.887594 
	C101.441696,22.897478 107.840462,22.354099 114.231918,21.956232 
	C115.505112,21.876978 116.751915,21.373699 118.688286,21.022991 
	C119.548927,20.998087 119.732170,21.016142 119.915413,21.034197 
	C120.372574,21.072954 120.829742,21.111712 121.628098,21.195553 
z"/>
<path fill="#929292" opacity="1.000000" stroke="none" 
	d="
M61.984829,2.281446 
	C69.335083,2.226241 76.685333,2.171035 84.499008,2.166618 
	C83.985512,5.246530 83.008591,8.275653 82.012512,11.684694 
	C79.612114,12.382429 77.230858,12.700246 74.047485,12.993391 
	C70.837326,12.220418 68.429291,11.472116 66.014252,10.362735 
	C64.666451,7.428252 63.325638,4.854849 61.984829,2.281446 
z"/>
<path fill="#232323" opacity="1.000000" stroke="none" 
	d="
M66.021255,10.723815 
	C68.429291,11.472116 70.837326,12.220418 73.634903,13.039373 
	C75.694511,15.772620 77.364571,18.435211 79.071945,21.438005 
	C77.550850,21.260138 75.992447,20.742065 73.869942,20.065353 
	C71.878502,18.637163 70.451164,17.367613 68.817039,15.876658 
	C63.328537,16.855963 59.079762,14.332184 55.102535,11.565769 
	C58.927494,11.107665 62.474377,10.915740 66.021255,10.723815 
z"/>
<path fill="#464646" opacity="1.000000" stroke="none" 
	d="
M119.842209,20.851091 
	C119.732170,21.016142 119.548927,20.998087 119.090904,20.940426 
	C119.133751,20.823208 119.451378,20.745596 119.842209,20.851091 
z"/>
<path fill="#555555" opacity="1.000000" stroke="none" 
	d="
M105.090965,91.666824 
	C103.816254,93.171394 102.633614,94.343704 100.868607,95.772308 
	C99.193382,97.020599 98.100525,98.012589 97.007660,99.004578 
	C97.007660,99.004578 97.000000,99.000900 96.766167,98.703888 
	C96.393463,97.126427 96.306961,95.837601 96.104095,94.567368 
	C95.755920,92.387421 96.029625,89.175461 94.756729,88.328331 
	C93.380135,87.412170 90.374870,88.318810 88.359329,89.127083 
	C84.966522,90.487656 82.919983,90.384369 83.263832,85.830994 
	C88.636078,79.094322 88.648804,78.926460 84.167885,75.531471 
	C81.434860,73.768646 76.184525,74.955391 78.291534,69.110336 
	C81.443062,68.696365 84.165337,68.283234 86.938217,68.176056 
	C87.020302,68.686348 87.051781,68.890678 87.250175,69.354790 
	C88.222267,69.690262 89.027458,69.765961 89.909340,70.167542 
	C90.643143,70.939766 91.300247,71.386101 92.308609,71.963081 
	C93.420280,74.376747 94.180695,76.659775 95.171791,79.188889 
	C96.826546,79.940300 98.250618,80.445625 99.886108,81.229347 
	C102.076797,83.006714 104.056068,84.505684 106.204033,85.891151 
	C106.614677,85.638977 106.801155,85.446541 107.317795,85.138046 
	C108.482582,85.111549 109.261734,85.147369 110.040878,85.183182 
	C110.018250,86.206299 109.995613,87.229424 109.963226,88.636955 
	C108.363319,89.792435 106.773178,90.563499 105.090965,91.666824 
z"/>
<path fill="#2D2D2D" opacity="1.000000" stroke="none" 
	d="
M114.082024,94.366837 
	C116.767509,93.747116 119.636230,93.165688 122.488831,93.236176 
	C123.335709,93.257095 124.694511,95.033974 124.847649,96.140617 
	C125.204353,98.718414 124.970627,101.377914 124.967972,104.456970 
	C118.707771,104.293060 117.698563,98.205849 114.082024,94.366837 
z"/>
<path fill="#515151" opacity="1.000000" stroke="none" 
	d="
M102.188904,122.800827 
	C102.125069,122.356400 102.277832,121.707779 102.685364,120.991798 
	C102.761932,121.481834 102.583725,122.039238 102.188904,122.800827 
z"/>
<path fill="#787878" opacity="1.000000" stroke="none" 
	d="
M111.080307,89.157028 
	C111.302994,89.134315 111.659607,89.309509 111.984985,89.715179 
	C111.659508,89.808510 111.413002,89.611603 111.080307,89.157028 
z"/>
<path fill="#5F5F5F" opacity="1.000000" stroke="none" 
	d="
M83.019417,37.007973 
	C87.832672,35.561237 92.585106,33.848316 97.473694,32.731228 
	C104.504517,31.124617 111.620705,29.868570 118.738342,28.692177 
	C119.694603,28.534128 120.871529,29.711151 121.657669,30.680374 
	C120.580116,31.394642 119.791153,31.698481 118.571594,32.001663 
	C115.093903,33.000431 112.046799,33.999859 108.545692,34.999512 
	C105.062111,35.000874 102.032524,35.002003 98.654846,35.059677 
	C95.710640,36.227959 92.596527,36.960430 94.013535,41.364700 
	C93.645355,44.005684 94.054741,47.050507 92.731567,48.413902 
	C88.739143,52.527683 88.284149,56.893246 89.554047,62.002907 
	C85.485298,62.095875 81.868568,62.111095 78.231461,61.744987 
	C78.846870,59.252853 79.482674,57.142044 80.395271,54.816002 
	C82.500031,50.604618 85.471085,46.820049 82.998680,41.609497 
	C83.005272,39.796631 83.012344,38.402302 83.019417,37.007973 
z"/>
<path fill="#636363" opacity="1.000000" stroke="none" 
	d="
M119.002182,32.002319 
	C119.791153,31.698481 120.580116,31.394642 121.683624,31.045963 
	C122.332718,33.065182 122.667274,35.129242 123.007080,37.588421 
	C123.005417,38.435699 122.998505,38.887856 122.600449,39.603382 
	C115.279846,37.576694 109.894485,41.690319 104.303467,44.469707 
	C103.080917,45.077457 102.865356,47.550144 101.979355,49.041149 
	C101.103920,50.514374 100.256226,52.467644 98.886787,53.091167 
	C95.627037,54.575394 94.807777,56.620613 95.639008,59.861557 
	C93.808334,60.579464 92.357025,61.219158 90.681801,61.889019 
	C90.457886,61.919182 90.006065,61.925156 90.006065,61.925156 
	C88.284149,56.893246 88.739143,52.527683 92.731567,48.413902 
	C94.054741,47.050507 93.645355,44.005684 94.258781,41.143166 
	C95.993958,38.705524 97.498451,36.854328 99.002945,35.003132 
	C102.032524,35.002003 105.062111,35.000874 108.952438,34.977890 
	C112.876190,33.971462 115.939186,32.986889 119.002182,32.002319 
z"/>
<path fill="#787878" opacity="1.000000" stroke="none" 
	d="
M76.965569,27.021244 
	C80.535683,26.946684 81.969734,28.892591 81.920822,32.636864 
	C81.923523,33.459938 81.916847,33.896225 81.944809,34.951775 
	C81.711594,36.050179 81.443726,36.529320 80.824013,36.994400 
	C80.003250,36.980331 79.534332,36.980328 79.019882,36.593765 
	C78.869820,35.174721 78.765289,34.142235 78.735336,32.792419 
	C78.226883,31.954054 77.643852,31.433018 77.029091,30.522686 
	C76.986763,29.096006 76.976166,28.058626 76.965569,27.021244 
z"/>
<path fill="#3B3B3B" opacity="1.000000" stroke="none" 
	d="
M81.175858,37.008465 
	C81.443726,36.529320 81.711594,36.050179 81.984093,35.277023 
	C82.293442,35.466831 82.598167,35.950653 82.961151,36.721226 
	C83.012344,38.402302 83.005272,39.796631 82.680115,41.453236 
	C81.966637,40.146496 81.571251,38.577480 81.175858,37.008465 
z"/>
<path fill="#B6B6B6" opacity="1.000000" stroke="none" 
	d="
M2.493642,106.919533 
	C2.140578,104.554352 2.136135,102.130310 2.558457,99.306030 
	C4.299619,98.966728 5.614016,99.027641 6.973090,99.460968 
	C7.283294,103.660210 9.843931,104.230103 12.978565,104.421570 
	C12.915230,105.896698 12.829112,106.968033 12.742993,108.039368 
	C9.442749,107.646469 6.142506,107.253571 2.493642,106.919533 
z"/>
<path fill="#6B6B6B" opacity="1.000000" stroke="none" 
	d="
M12.789684,108.370049 
	C12.829112,106.968033 12.915230,105.896698 13.143688,104.103622 
	C13.863845,101.576599 14.441662,99.771317 15.031991,97.621094 
	C15.366128,96.182602 15.687753,95.089058 16.339661,93.996292 
	C17.110323,93.998474 17.550703,93.999870 18.117977,94.295326 
	C17.831783,96.390999 17.418695,98.192627 17.005604,99.994247 
	C16.988506,103.055313 16.971409,106.116386 16.581707,109.584770 
	C15.160182,109.999008 14.111259,110.005920 13.062334,110.012840 
	C12.987015,109.575470 12.911695,109.138100 12.789684,108.370049 
z"/>
<path fill="#5C5C5C" opacity="1.000000" stroke="none" 
	d="
M13.022724,110.346558 
	C14.111259,110.005920 15.160182,109.999008 16.602379,109.982094 
	C18.142042,110.575081 19.721161,110.901039 20.328201,111.849297 
	C21.135378,113.110176 21.185061,114.855965 21.560181,116.393417 
	C20.266800,116.632370 18.973419,116.871323 17.334497,117.055450 
	C15.842295,115.479889 14.695635,113.959145 13.300253,112.230637 
	C13.028724,111.575340 13.005919,111.127808 13.022724,110.346558 
z"/>
<path fill="#636363" opacity="1.000000" stroke="none" 
	d="
M17.991081,94.001266 
	C17.550703,93.999870 17.110323,93.998474 16.165575,93.797241 
	C16.147646,93.056664 16.634087,92.515923 17.362339,91.699631 
	C17.664661,89.943466 17.725172,88.462852 17.785683,86.982239 
	C20.917253,86.315697 24.048826,85.649155 27.660208,85.335518 
	C29.754402,86.461922 31.368788,87.235428 32.983173,88.008934 
	C33.001793,88.746674 33.020412,89.484413 33.039680,90.590042 
	C32.060951,91.966888 30.236258,92.978729 30.239691,93.984329 
	C30.261606,100.401855 30.685938,106.818008 30.956839,113.646400 
	C30.935865,114.058189 30.475538,114.050133 30.098282,113.712097 
	C27.820097,108.897377 25.157349,104.569168 24.247248,99.899376 
	C23.447247,95.794533 21.787748,94.169174 17.991081,94.001266 
z"/>
<path fill="#636363" opacity="1.000000" stroke="none" 
	d="
M30.962170,117.990646 
	C30.963636,117.252602 30.965101,116.514557 30.963634,115.408508 
	C31.969154,117.103851 32.977608,119.167198 33.975060,121.631538 
	C33.438969,121.828346 32.913872,121.624168 32.182362,120.881035 
	C31.638025,119.558266 31.300097,118.774460 30.962170,117.990646 
z"/>
<path fill="#C5C5C5" opacity="1.000000" stroke="none" 
	d="
M110.334534,85.143127 
	C109.261734,85.147369 108.482582,85.111549 107.086975,85.147873 
	C106.196419,85.409988 106.051369,85.671539 106.035347,86.004654 
	C104.056068,84.505684 102.076797,83.006714 100.249184,81.169205 
	C101.212639,80.422211 102.024422,80.013748 103.236198,79.740250 
	C104.742218,79.820160 105.848236,79.765099 107.308205,79.832703 
	C109.471664,80.581345 111.281174,81.207321 113.314445,81.894501 
	C113.538200,81.955704 114.000221,81.998047 114.000221,81.998047 
	C114.012474,83.123665 114.024719,84.249275 114.025894,85.690781 
	C112.885941,85.705475 111.757065,85.404266 110.334534,85.143127 
z"/>
<path fill="#2D2D2D" opacity="1.000000" stroke="none" 
	d="
M115.945587,69.975258 
	C116.286949,71.078590 116.628311,72.181923 116.977798,73.635345 
	C116.165298,75.513435 115.344666,77.041443 114.265137,78.786415 
	C114.006248,79.003387 114.025261,79.012779 113.947113,78.673569 
	C113.577301,75.874092 113.285645,73.413826 113.229286,70.735115 
	C114.291588,70.336205 115.118584,70.155731 115.945587,69.975258 
z"/>
<path fill="#2D2D2D" opacity="1.000000" stroke="none" 
	d="
M113.995941,81.622734 
	C114.000221,81.998047 113.538200,81.955704 113.306213,81.577637 
	C113.391228,80.470634 113.708244,79.741707 114.025253,79.012779 
	C114.025261,79.012779 114.006248,79.003387 113.999252,78.997574 
	C113.992050,79.743645 113.991852,80.495529 113.995941,81.622734 
z"/>
<path fill="#929292" opacity="1.000000" stroke="none" 
	d="
M2.057044,17.075335 
	C2.194659,12.323328 2.332274,7.571322 2.333276,2.462255 
	C10.827812,2.067038 19.458960,2.028883 28.632250,2.362512 
	C30.783062,3.824346 32.391735,4.914395 34.309853,6.241009 
	C36.750084,6.647171 38.880875,6.816770 41.383930,6.987220 
	C42.500397,6.988002 43.244595,6.987934 44.309586,7.144189 
	C47.901974,8.412927 48.228962,11.022860 47.569889,14.006283 
	C42.553936,14.497230 37.963730,14.899636 33.158249,15.320915 
	C33.018219,17.171017 32.887241,18.901527 32.745823,20.770018 
	C26.647684,21.054407 20.929361,21.321081 15.162370,21.590027 
	C14.618333,19.598614 14.154328,17.900158 13.578359,15.791856 
	C9.580482,16.237221 5.818762,16.656279 2.057044,17.075335 
z"/>
<path fill="#8C8C8C" opacity="1.000000" stroke="none" 
	d="
M47.995640,13.917743 
	C48.228962,11.022860 47.901974,8.412927 44.381222,6.804183 
	C45.746395,4.941431 47.360722,3.575007 48.975044,2.208583 
	C53.006008,2.188197 57.036976,2.167810 61.526382,2.214435 
	C63.325638,4.854849 64.666451,7.428252 66.014252,10.362735 
	C62.474377,10.915740 58.927494,11.107665 54.817825,11.613970 
	C53.815781,12.269018 53.376518,12.609689 52.608475,13.017711 
	C51.493713,13.449576 50.707741,13.814091 49.595852,14.173650 
	C48.845169,14.085043 48.420406,14.001392 47.995640,13.917743 
z"/>
<path fill="#848484" opacity="1.000000" stroke="none" 
	d="
M48.514877,2.125944 
	C47.360722,3.575007 45.746395,4.941431 44.060432,6.647860 
	C43.244595,6.987934 42.500397,6.988002 41.258080,6.644697 
	C38.506779,6.202363 36.253593,6.103404 34.000408,6.004444 
	C32.391735,4.914395 30.783062,3.824346 29.098282,2.419640 
	C35.366352,2.084424 41.710533,2.063865 48.514877,2.125944 
z"/>
<path fill="#0D0D0D" opacity="1.000000" stroke="none" 
	d="
M47.569889,14.006283 
	C48.420406,14.001392 48.845169,14.085043 49.369736,14.403625 
	C44.204037,18.307285 42.497715,23.766285 41.417763,29.825459 
	C37.661491,29.914970 34.349075,29.942633 30.797153,29.724487 
	C27.265837,27.695360 24.160576,25.125320 19.545870,26.971783 
	C13.562116,26.918736 8.039344,26.870693 2.516572,26.822649 
	C2.342227,23.870148 2.167882,20.917648 2.025290,17.520241 
	C5.818762,16.656279 9.580482,16.237221 13.578359,15.791856 
	C14.154328,17.900158 14.618333,19.598614 15.162370,21.590027 
	C20.929361,21.321081 26.647684,21.054407 32.745823,20.770018 
	C32.887241,18.901527 33.018219,17.171017 33.158249,15.320915 
	C37.963730,14.899636 42.553936,14.497230 47.569889,14.006283 
z"/>
<path fill="#848484" opacity="1.000000" stroke="none" 
	d="
M2.996359,80.995293 
	C2.721814,67.250267 2.447269,53.505238 2.533397,39.369888 
	C3.247033,39.323277 3.599995,39.666988 3.952641,40.474045 
	C4.369587,49.002163 4.786849,57.066933 5.166656,65.458374 
	C5.373877,66.589828 5.618553,67.394623 5.888586,68.607422 
	C5.993343,70.375877 6.072745,71.736305 6.097693,73.505814 
	C6.631100,76.635338 7.218959,79.355789 7.772612,82.377769 
	C7.147622,83.479729 6.556839,84.280167 5.674171,84.923492 
	C4.586978,83.509354 3.791668,82.252327 2.996359,80.995293 
z"/>
<path fill="#555555" opacity="1.000000" stroke="none" 
	d="
M3.952957,40.010696 
	C3.599995,39.666988 3.247033,39.323277 2.656442,38.907345 
	C2.430475,38.111355 2.442138,37.387585 3.007657,36.328575 
	C9.078941,36.319305 14.596371,36.645275 20.339439,36.976158 
	C20.565079,36.981079 21.018705,36.998356 21.012875,37.414906 
	C20.997829,39.218468 20.988615,40.605484 20.516426,41.994354 
	C14.686619,41.334373 9.319788,40.672535 3.952957,40.010696 
z"/>
<path fill="#4D4D4D" opacity="1.000000" stroke="none" 
	d="
M20.113800,36.971241 
	C14.596371,36.645275 9.078941,36.319305 3.144236,35.992523 
	C2.623649,34.245308 2.520339,32.498909 2.411808,30.277359 
	C2.406587,29.802210 2.374723,29.708044 2.809499,29.959497 
	C8.838086,30.464880 14.431896,30.718807 20.027395,31.186251 
	C20.029083,31.399767 20.001858,31.825945 20.004856,32.261501 
	C20.043167,34.121784 20.078484,35.546513 20.113800,36.971241 
z"/>
<path fill="#464646" opacity="1.000000" stroke="none" 
	d="
M20.025707,30.972734 
	C14.431896,30.718807 8.838086,30.464880 2.788367,29.903683 
	C2.332459,29.596416 2.395116,29.361044 2.395116,29.361044 
	C2.384612,28.936506 2.374108,28.511971 2.440088,27.455040 
	C8.039344,26.870693 13.562116,26.918736 19.544193,27.372351 
	C20.010900,28.842861 20.018303,29.907797 20.025707,30.972734 
z"/>
<path fill="#848484" opacity="1.000000" stroke="none" 
	d="
M6.928412,99.088562 
	C5.614016,99.027641 4.299619,98.966728 2.596023,98.850433 
	C2.145956,97.125954 2.085087,95.456856 2.408106,93.330765 
	C4.141577,92.510750 5.491160,92.147728 7.083670,92.058174 
	C8.553083,94.223434 9.779571,96.115234 10.937117,98.283554 
	C9.554922,98.736237 8.241668,98.912399 6.928412,99.088562 
z"/>
<path fill="#5F5F5F" opacity="1.000000" stroke="none" 
	d="
M6.840744,91.784706 
	C5.491160,92.147728 4.141577,92.510750 2.445041,92.912415 
	C2.062099,92.196060 2.026108,91.441040 2.249492,90.324554 
	C2.508866,89.963089 2.877691,89.914352 3.096340,90.081566 
	C4.238093,90.168388 5.161199,90.088005 6.257826,90.093842 
	C6.649354,90.323631 6.821177,90.509804 6.924891,91.000580 
	C6.882225,91.436615 6.861484,91.610657 6.840744,91.784706 
z"/>
<path fill="#232323" opacity="1.000000" stroke="none" 
	d="
M2.892171,81.414886 
	C3.791668,82.252327 4.586978,83.509354 5.694221,84.895821 
	C6.006153,85.025253 5.948448,84.988960 5.940127,85.312210 
	C5.975793,86.063995 6.019780,86.492531 6.022111,87.189438 
	C5.986958,87.638763 5.993460,87.819702 5.712129,87.871201 
	C4.943741,87.063156 4.463185,86.384560 3.993095,85.524155 
	C4.003560,85.342354 3.989051,84.978439 3.867615,84.716919 
	C3.395364,84.440117 3.044548,84.424835 2.693732,84.409554 
	C2.725149,83.551193 2.756567,82.692833 2.892171,81.414886 
z"/>
<path fill="#2D2D2D" opacity="1.000000" stroke="none" 
	d="
M3.989051,84.978439 
	C3.989051,84.978439 4.003560,85.342354 3.762084,85.817841 
	C3.306302,87.500336 3.091996,88.707344 2.877691,89.914352 
	C2.877691,89.914352 2.508866,89.963089 2.323204,89.953217 
	C2.177541,88.308372 2.217541,86.673386 2.753957,84.948441 
	C3.496598,84.898460 3.742825,84.938454 3.989051,84.978439 
z"/>
<path fill="#0D0D0D" opacity="1.000000" stroke="none" 
	d="
M2.534431,29.324699 
	C2.395116,29.361044 2.332459,29.596416 2.353591,29.652229 
	C2.374723,29.708044 2.406587,29.802210 2.415356,29.749254 
	C2.424124,29.696299 2.727249,29.682032 2.727249,29.682032 
	C2.727249,29.682032 2.673747,29.288355 2.534431,29.324699 
z"/>
<path fill="#787878" opacity="1.000000" stroke="none" 
	d="
M3.867615,84.716919 
	C3.742825,84.938454 3.496598,84.898460 2.974825,84.604652 
	C2.699277,84.350838 2.765653,84.387985 2.729692,84.398773 
	C3.044548,84.424835 3.395364,84.440117 3.867615,84.716919 
z"/>
<path fill="#5F5F5F" opacity="1.000000" stroke="none" 
	d="
M18.117977,94.295319 
	C21.787748,94.169174 23.447247,95.794533 24.247248,99.899376 
	C25.157349,104.569168 27.820097,108.897377 29.868126,113.707634 
	C29.011681,115.782677 28.008131,117.524147 26.993088,119.638153 
	C26.345518,119.336273 25.457870,118.770126 25.113543,117.970131 
	C22.583065,112.090897 20.161236,106.164894 17.355391,100.123940 
	C17.418695,98.192627 17.831783,96.390999 18.117977,94.295319 
z"/>
<path fill="#232323" opacity="1.000000" stroke="none" 
	d="
M115.983078,69.609283 
	C115.118584,70.155731 114.291588,70.336205 113.037888,70.801147 
	C112.611198,71.085625 112.211578,71.149811 111.921631,70.972610 
	C111.380325,69.567047 111.167892,68.329010 110.866058,67.113182 
	C110.594643,66.019867 110.225105,64.950920 110.090210,63.527710 
	C114.513756,62.422485 118.745949,61.660786 122.978134,60.899082 
	C123.483391,61.172764 123.988647,61.446442 124.755013,61.840302 
	C125.031113,62.703480 125.046104,63.446476 125.076767,64.560341 
	C122.068481,66.368568 119.044525,67.805931 115.983078,69.609283 
z"/>
<path fill="#6B6B6B" opacity="1.000000" stroke="none" 
	d="
M123.010788,60.493179 
	C118.745949,61.660786 114.513756,62.422485 109.725372,63.656357 
	C107.396332,64.472641 105.623489,64.816765 103.900803,64.745316 
	C103.933235,63.502071 103.915520,62.674400 103.845123,61.453781 
	C101.201088,60.635002 98.609726,60.209175 96.018372,59.783352 
	C94.807777,56.620613 95.627037,54.575394 98.886787,53.091167 
	C100.256226,52.467644 101.103920,50.514374 101.979355,49.041149 
	C102.865356,47.550144 103.080917,45.077457 104.303467,44.469707 
	C109.894485,41.690319 115.279846,37.576694 122.595856,39.942341 
	C123.002754,46.707714 123.023102,53.397499 123.010788,60.493179 
z"/>
<path fill="#5F5F5F" opacity="1.000000" stroke="none" 
	d="
M30.781576,118.196426 
	C31.300097,118.774460 31.638025,119.558266 31.984612,120.675011 
	C31.529173,120.139366 31.065077,119.270782 30.781576,118.196426 
z"/>
<path fill="#5C5C5C" opacity="1.000000" stroke="none" 
	d="
M83.006004,86.067581 
	C82.919983,90.384369 84.966522,90.487656 88.359329,89.127083 
	C90.374870,88.318810 93.380135,87.412170 94.756729,88.328331 
	C96.029625,89.175461 95.755920,92.387421 96.104095,94.567368 
	C96.306961,95.837601 96.393463,97.126427 96.767883,98.708939 
	C95.649292,100.776596 94.295151,102.542198 92.801651,104.489494 
	C91.835938,103.388382 91.423119,103.126793 91.447250,102.915009 
	C92.343834,95.048355 92.339859,95.074921 84.949844,92.380173 
	C83.732529,91.936279 82.639496,91.151573 81.359390,90.158615 
	C81.385239,89.478874 81.309898,89.216797 81.003731,89.006638 
	C80.219643,88.675270 79.435547,88.343910 78.282959,87.954437 
	C77.914459,87.896332 77.839493,87.809776 78.005463,87.568787 
	C78.787720,86.910019 79.403999,86.492249 80.392242,86.031082 
	C81.511475,86.014320 82.258736,86.040947 83.006004,86.067581 
z"/>
<path fill="#5C5C5C" opacity="1.000000" stroke="none" 
	d="
M55.339085,91.168785 
	C56.189465,90.134140 57.364807,89.255371 59.183346,88.160011 
	C65.847816,90.184113 71.848289,89.621262 77.839493,87.809776 
	C77.839493,87.809776 77.914459,87.896332 77.951828,87.939316 
	C77.696457,89.092308 77.403717,90.202316 77.055489,91.656166 
	C77.000000,92.000000 76.994553,92.007545 76.994553,92.007545 
	C73.031425,92.527481 69.061058,93.491226 65.107452,93.426804 
	C61.949070,93.375343 58.811085,92.072227 55.339085,91.168785 
z"/>
<path fill="#5C5C5C" opacity="1.000000" stroke="none" 
	d="
M97.329422,98.950005 
	C98.100525,98.012589 99.193382,97.020599 100.643120,96.014297 
	C99.883736,96.965149 98.767464,97.930290 97.329422,98.950005 
z"/>
<path fill="#5C5C5C" opacity="1.000000" stroke="none" 
	d="
M73.119743,93.352654 
	C73.470383,93.313576 73.719208,93.395416 73.968025,93.477264 
	C73.889931,93.580215 73.784119,93.782372 73.738358,93.769585 
	C73.490028,93.700211 73.256531,93.577751 73.119743,93.352654 
z"/>
<path fill="#5C5C5C" opacity="1.000000" stroke="none" 
	d="
M77.003723,91.997284 
	C77.007439,91.994560 77.304016,92.186752 77.304016,92.186752 
	C77.304016,92.186752 77.080391,92.174683 77.037476,92.091110 
	C76.994553,92.007545 77.000000,92.000000 77.003723,91.997284 
z"/>
<path fill="#555555" opacity="1.000000" stroke="none" 
	d="
M81.003891,89.255959 
	C81.309898,89.216797 81.385239,89.478874 81.113922,89.898376 
	C80.998077,90.003883 81.004044,89.505280 81.003891,89.255959 
z"/>
<path fill="#C6C6C6" opacity="1.000000" stroke="none" 
	d="
M78.005463,87.568787 
	C71.848289,89.621262 65.847816,90.184113 59.429607,87.924774 
	C56.001022,85.184242 52.969376,82.462364 50.309074,79.260178 
	C53.863506,74.156372 53.743511,74.251610 57.333492,78.774895 
	C58.457970,80.191704 60.419357,80.944290 62.347870,82.009018 
	C63.803322,82.350716 64.908569,82.684311 65.961639,83.351379 
	C64.798302,87.247581 66.842934,87.431511 69.541504,87.261795 
	C70.368324,83.898170 70.306870,81.631165 66.016006,82.640053 
	C66.918755,77.745796 69.887497,75.095856 73.845726,72.846130 
	C74.913139,75.099487 75.714912,76.792068 76.614243,78.690590 
	C78.010536,77.611465 79.023064,76.828934 80.029877,76.497574 
	C80.022881,79.990654 80.021584,83.032570 80.020287,86.074478 
	C79.403999,86.492249 78.787720,86.910019 78.005463,87.568787 
z"/>
<path fill="#C5C5C5" opacity="1.000000" stroke="none" 
	d="
M61.997662,82.000916 
	C60.419357,80.944290 58.457970,80.191704 57.333492,78.774895 
	C53.743511,74.251610 53.863506,74.156372 50.351837,78.889618 
	C50.036880,76.628632 50.050514,74.257904 50.372688,71.456268 
	C52.123066,71.352402 53.564907,71.679443 55.002762,72.002884 
	C54.998783,71.999283 54.989807,71.993881 55.177773,72.222679 
	C55.916588,72.637749 56.467445,72.824013 57.009308,73.005264 
	C57.000309,73.000252 56.982086,72.990700 57.157959,73.220726 
	C57.868706,73.635811 58.403580,73.820869 59.133377,74.226730 
	C59.859516,74.690887 60.390724,74.934242 61.008331,75.548607 
	C61.395706,77.946716 61.696682,79.973816 61.997662,82.000916 
z"/>
<path fill="#6E6E6E" opacity="1.000000" stroke="none" 
	d="
M39.397717,76.034996 
	C38.992489,76.045364 38.546936,75.997574 38.234848,75.642456 
	C36.663971,73.468872 35.405178,71.650414 34.159225,69.599243 
	C34.425976,69.038002 34.679886,68.709473 35.208294,68.624359 
	C38.674316,68.843575 41.865837,68.819389 45.374374,68.842117 
	C46.109394,68.971886 46.527393,69.054749 46.945396,69.137611 
	C44.923058,71.805061 45.424606,77.090004 39.397717,76.034996 
z"/>
<path fill="#ACACAC" opacity="1.000000" stroke="none" 
	d="
M55.006744,72.006485 
	C53.564907,71.679443 52.123066,71.352402 50.308777,71.016243 
	C49.489830,70.411263 49.043335,69.815399 48.354187,68.786880 
	C48.042778,67.248756 47.974030,66.143288 48.252743,65.030289 
	C49.063457,65.018425 49.526707,65.014084 50.234474,65.229904 
	C51.988243,67.635536 53.497494,69.821007 55.006744,72.006485 
z"/>
<path fill="#0D0D0D" opacity="1.000000" stroke="none" 
	d="
M47.905281,65.037811 
	C47.974030,66.143288 48.042778,67.248756 48.083878,68.675415 
	C47.870991,69.019180 47.685749,69.041748 47.222954,69.100967 
	C46.527393,69.054749 46.109394,68.971886 45.360622,68.466232 
	C45.009441,67.039497 44.989029,66.035568 44.976082,65.023666 
	C44.983547,65.015694 44.965706,65.033623 45.324043,65.073502 
	C46.154137,65.038986 46.625896,64.964607 47.300621,64.921341 
	C47.503586,64.952446 47.905281,65.037811 47.905281,65.037811 
z"/>
<path fill="#2D2D2D" opacity="1.000000" stroke="none" 
	d="
M32.017673,78.106331 
	C26.409853,82.000168 20.984636,81.375427 15.365437,76.889008 
	C15.022916,75.537773 15.007903,74.744141 15.014360,73.744263 
	C15.035830,73.538017 15.095916,73.126793 15.551613,73.117813 
	C19.695274,73.115311 23.383238,73.121788 27.164364,73.224091 
	C27.257528,73.319931 27.627882,73.367058 27.627882,73.367058 
	C27.627882,73.367058 27.933668,73.123627 28.350468,73.085800 
	C30.159058,72.996773 31.550846,72.945564 32.938099,73.273132 
	C32.628265,75.136719 32.322971,76.621529 32.017673,78.106331 
z"/>
<path fill="#5C5C5C" opacity="1.000000" stroke="none" 
	d="
M32.990559,87.619621 
	C31.368788,87.235428 29.754402,86.461922 28.069672,85.331482 
	C29.456430,83.740112 30.913534,82.505676 32.997944,80.739792 
	C32.997944,83.475807 32.997944,85.353058 32.990559,87.619621 
z"/>
<path fill="#232323" opacity="1.000000" stroke="none" 
	d="
M32.375824,78.023590 
	C32.322971,76.621529 32.628265,75.136719 32.987362,72.938568 
	C33.094830,71.777107 33.148502,71.328995 33.384247,70.730675 
	C33.777607,70.344864 33.970963,70.095360 34.146381,69.831947 
	C35.405178,71.650414 36.663971,73.468872 38.012001,75.619263 
	C36.312149,76.614410 34.523060,77.277634 32.375824,78.023590 
z"/>
<path fill="#232323" opacity="1.000000" stroke="none" 
	d="
M14.992890,73.950516 
	C15.007903,74.744141 15.022916,75.537773 15.065409,76.729843 
	C15.094644,78.135895 15.096397,79.143501 15.046748,80.575897 
	C14.995345,81.000671 14.858992,81.091354 14.651096,80.892929 
	C13.988043,80.077690 13.532886,79.460884 13.073076,78.467606 
	C13.709914,76.710930 14.351402,75.330719 14.992890,73.950516 
z"/>
<path fill="#232323" opacity="1.000000" stroke="none" 
	d="
M17.581520,86.770576 
	C17.725172,88.462852 17.664661,89.943466 17.250729,91.439575 
	C16.610388,90.289963 16.323471,89.124870 16.042793,87.565628 
	C16.021584,86.120964 15.994137,85.070457 15.982814,84.008789 
	C15.998939,83.997627 16.029821,83.972534 16.029823,83.972534 
	C16.479000,84.834663 16.928179,85.696785 17.581520,86.770576 
z"/>
<path fill="#232323" opacity="1.000000" stroke="none" 
	d="
M15.063578,80.955414 
	C15.426838,81.710007 15.721867,82.509865 16.023357,83.641129 
	C16.029821,83.972534 15.998939,83.997627 15.740209,83.792252 
	C15.273983,82.755028 15.066487,81.923195 14.858992,81.091354 
	C14.858992,81.091354 14.995345,81.000671 15.063578,80.955414 
z"/>
<path fill="#787878" opacity="1.000000" stroke="none" 
	d="
M69.023827,16.098064 
	C70.451164,17.367613 71.878502,18.637163 73.515411,20.171232 
	C73.848763,21.325377 73.972549,22.215004 73.821724,23.408028 
	C73.031990,23.473383 72.516861,23.235340 72.000870,22.998657 
	C72.000000,23.000013 72.002403,22.998201 71.889542,22.734858 
	C70.818596,22.211678 69.860512,21.951841 68.492912,21.642086 
	C64.065941,21.232924 60.048485,20.873678 55.687897,20.353790 
	C54.054047,20.122911 52.763321,20.052675 51.360214,19.710835 
	C52.122128,18.310560 52.996426,17.181889 54.152130,16.289223 
	C55.698574,16.901733 57.037636,17.750896 58.214825,17.566519 
	C61.809868,17.003445 65.976921,20.441401 69.023827,16.098064 
z"/>
<path fill="#C5C5C5" opacity="1.000000" stroke="none" 
	d="
M72.001740,22.997299 
	C72.516861,23.235340 73.031990,23.473383 73.829147,23.750080 
	C74.938591,24.702587 75.766006,25.616440 76.779495,26.775768 
	C76.976166,28.058626 76.986763,29.096006 77.048965,30.821507 
	C77.620628,32.042999 78.140686,32.576374 78.660751,33.109749 
	C78.765289,34.142235 78.869820,35.174721 78.725418,36.714928 
	C76.966064,36.784054 75.455643,36.345459 73.962814,35.479034 
	C73.320854,31.033239 72.661293,27.015270 72.001740,22.997299 
z"/>
<path fill="#464646" opacity="1.000000" stroke="none" 
	d="
M68.817039,15.876659 
	C65.976921,20.441401 61.809868,17.003445 58.214825,17.566519 
	C57.037636,17.750896 55.698574,16.901733 54.340206,16.095531 
	C53.810337,14.760676 53.373798,13.855517 52.937260,12.950359 
	C53.376518,12.609689 53.815781,12.269018 54.539749,11.880148 
	C59.079762,14.332184 63.328537,16.855963 68.817039,15.876659 
z"/>
<path fill="#2D2D2D" opacity="1.000000" stroke="none" 
	d="
M103.850639,65.160889 
	C105.623489,64.816765 107.396332,64.472641 109.534019,63.999878 
	C110.225105,64.950920 110.594643,66.019867 110.866058,67.113182 
	C111.167892,68.329010 111.380325,69.567047 111.674507,71.188530 
	C110.494499,72.422668 109.271667,73.263680 107.614349,74.081451 
	C105.200989,73.881256 103.141571,73.995361 101.258011,73.474083 
	C95.025795,71.749313 95.050140,71.661346 95.069595,78.278259 
	C95.030411,78.500458 94.941116,78.942802 94.941116,78.942802 
	C94.180695,76.659775 93.420280,74.376747 92.320175,71.794914 
	C91.980499,71.496109 92.008667,71.157677 92.208595,70.877777 
	C93.343338,68.825562 94.278152,67.053230 95.438828,65.139076 
	C95.759094,64.674278 95.853485,64.351311 96.279083,63.980537 
	C97.055908,63.940655 97.501511,63.948566 97.995041,64.321617 
	C99.978859,64.844803 101.914749,65.002846 103.850639,65.160889 
z"/>
<path fill="#B6B6B6" opacity="1.000000" stroke="none" 
	d="
M62.347870,82.009018 
	C61.696682,79.973816 61.395706,77.946716 61.437996,75.501144 
	C66.072426,75.694984 69.183792,73.816399 71.945259,70.684761 
	C73.271080,69.181221 75.220596,68.227661 76.942154,67.327850 
	C77.285187,68.124176 77.573730,68.617676 77.862274,69.111176 
	C76.184525,74.955391 81.434860,73.768646 83.748749,75.619949 
	C82.294243,76.020767 81.164917,76.033585 80.035583,76.046402 
	C79.023064,76.828934 78.010536,77.611465 76.614243,78.690590 
	C75.714912,76.792068 74.913139,75.099487 73.845726,72.846130 
	C69.887497,75.095856 66.918755,77.745796 66.007111,82.633179 
	C66.000114,83.000114 66.013817,83.017906 66.013817,83.017906 
	C64.908569,82.684311 63.803322,82.350716 62.347870,82.009018 
z"/>
<path fill="#232323" opacity="1.000000" stroke="none" 
	d="
M78.291534,69.110336 
	C77.573730,68.617676 77.285187,68.124176 77.013657,66.962067 
	C77.361275,64.867714 77.691879,63.441963 78.068375,62.067604 
	C78.114258,62.118996 78.251846,62.126316 78.251846,62.126316 
	C81.868568,62.111095 85.485298,62.095875 89.554047,62.002907 
	C90.006065,61.925156 90.457886,61.919182 90.716347,62.248314 
	C90.984772,63.057430 90.994736,63.537418 91.050110,64.236588 
	C91.095505,64.455772 91.211540,64.888153 91.165085,65.301498 
	C91.415298,67.529114 91.711983,69.343399 92.008667,71.157677 
	C92.008667,71.157677 91.980499,71.496109 91.968925,71.664276 
	C91.300247,71.386101 90.643143,70.939766 89.930222,69.982758 
	C89.874397,69.472084 89.796898,69.108307 89.842171,68.693817 
	C89.748215,66.855087 89.608986,65.430840 89.469765,64.006592 
	C88.938492,63.950981 88.407219,63.895374 87.875954,63.839767 
	C87.546501,65.183212 87.217056,66.526649 86.887611,67.870102 
	C84.165337,68.283234 81.443062,68.696365 78.291534,69.110336 
z"/>
<path fill="#D4D4D4" opacity="1.000000" stroke="none" 
	d="
M80.029877,76.497574 
	C81.164917,76.033585 82.294243,76.020767 83.842712,75.919472 
	C88.648804,78.926460 88.636078,79.094322 83.263832,85.830994 
	C82.258736,86.040947 81.511475,86.014320 80.392242,86.031082 
	C80.021584,83.032570 80.022881,79.990654 80.029877,76.497574 
z"/>
<path fill="#636363" opacity="1.000000" stroke="none" 
	d="
M95.171791,79.188889 
	C94.941116,78.942802 95.030411,78.500458 95.416969,78.284286 
	C98.147751,78.580505 100.491982,79.092896 102.836205,79.605286 
	C102.024422,80.013748 101.212639,80.422211 100.037773,80.890808 
	C98.250618,80.445625 96.826546,79.940300 95.171791,79.188889 
z"/>
<path fill="#6E6E6E" opacity="1.000000" stroke="none" 
	d="
M86.938217,68.176056 
	C87.217056,66.526649 87.546501,65.183212 87.875954,63.839767 
	C88.407219,63.895374 88.938492,63.950981 89.469765,64.006592 
	C89.608986,65.430840 89.748215,66.855087 89.502754,68.677422 
	C88.439796,69.082008 87.761536,69.088516 87.083267,69.095016 
	C87.051781,68.890678 87.020302,68.686348 86.938217,68.176056 
z"/>
<path fill="#9E9E9E" opacity="1.000000" stroke="none" 
	d="
M87.250175,69.354797 
	C87.761536,69.088516 88.439796,69.082008 89.457481,69.091904 
	C89.796898,69.108307 89.874397,69.472084 89.853516,69.656876 
	C89.027458,69.765961 88.222267,69.690262 87.250175,69.354797 
z"/>
<path fill="#3B3B3B" opacity="1.000000" stroke="none" 
	d="
M106.204033,85.891151 
	C106.051369,85.671539 106.196419,85.409988 106.701332,85.210175 
	C106.801155,85.446541 106.614677,85.638977 106.204033,85.891151 
z"/>
<path fill="#C5C5C5" opacity="1.000000" stroke="none" 
	d="
M55.002762,72.002884 
	C53.497494,69.821007 51.988243,67.635536 50.085587,64.909134 
	C48.126488,62.579781 46.560791,60.791340 44.939102,59.049866 
	C44.883114,59.096832 44.743626,59.140507 44.705704,58.820877 
	C44.487587,57.673950 44.307388,56.846653 44.416725,55.928612 
	C45.153454,55.210938 45.600655,54.584003 46.461269,53.964844 
	C48.258011,53.989807 49.641338,54.006996 50.880592,54.336494 
	C50.816631,56.110371 50.896748,57.571938 51.095291,59.366913 
	C52.510937,60.135883 53.808155,60.571442 55.148987,61.361942 
	C56.974125,65.451981 58.123970,70.235443 64.429596,67.031563 
	C68.751442,66.375900 68.283760,62.923359 69.285248,60.183144 
	C69.680588,59.887875 69.875969,59.691463 70.071350,59.495052 
	C69.704025,59.319897 69.336708,59.144745 68.644531,58.968185 
	C67.886841,58.969925 67.453995,58.973068 66.776169,58.969528 
	C66.531197,58.962849 66.041069,58.960117 66.026611,58.633244 
	C66.006546,57.869740 66.000946,57.433105 66.092224,56.686314 
	C68.399750,56.843460 70.610397,57.310768 73.180527,57.854065 
	C72.612839,56.596699 71.801620,54.799927 71.274078,52.959000 
	C72.034370,52.621792 72.510971,52.328739 73.247559,52.029808 
	C73.680862,52.018822 73.854164,52.013718 74.365341,51.988632 
	C75.465210,51.304554 76.227196,50.640457 76.934135,49.645882 
	C76.257362,47.895744 75.635635,46.476082 75.284363,44.813499 
	C76.866898,44.498497 78.178970,44.426418 78.832352,44.390526 
	C79.322571,48.446346 79.720520,51.738792 80.118477,55.031235 
	C79.482674,57.142044 78.846870,59.252853 78.231461,61.744987 
	C78.251846,62.126316 78.114258,62.118996 77.723289,62.099251 
	C75.297600,63.932739 73.426659,66.022179 71.184776,67.576645 
	C68.645821,69.337090 65.774254,70.617821 62.658234,72.076035 
	C60.506794,72.360191 58.744442,72.675446 56.982086,72.990700 
	C56.982086,72.990700 57.000309,73.000252 56.810440,72.788292 
	C56.076981,72.382179 55.533394,72.188034 54.989807,71.993881 
	C54.989807,71.993881 54.998783,71.999283 55.002762,72.002884 
z"/>
<path fill="#ACACAC" opacity="1.000000" stroke="none" 
	d="
M80.395271,54.816002 
	C79.720520,51.738792 79.322571,48.446346 78.832352,44.390526 
	C78.178970,44.426418 76.866898,44.498497 74.932678,44.934418 
	C71.885712,45.225742 69.460876,45.153221 66.712914,44.899891 
	C60.177086,42.709923 64.180031,39.151627 65.451813,36.047356 
	C68.532600,35.989239 71.238914,35.948051 73.945229,35.906860 
	C75.455643,36.345459 76.966064,36.784054 78.770950,37.101486 
	C79.534332,36.980328 80.003250,36.980331 80.824020,36.994400 
	C81.571251,38.577480 81.966637,40.146496 82.680595,41.871773 
	C85.471085,46.820049 82.500031,50.604618 80.395271,54.816002 
z"/>
<path fill="#606060" opacity="1.000000" stroke="none" 
	d="
M118.571594,32.001663 
	C115.939186,32.986889 112.876190,33.971462 109.406448,34.977661 
	C112.046799,33.999859 115.093903,33.000431 118.571594,32.001663 
z"/>
<path fill="#606060" opacity="1.000000" stroke="none" 
	d="
M98.654846,35.059677 
	C97.498451,36.854328 95.993958,38.705524 94.244232,40.778259 
	C92.596527,36.960430 95.710640,36.227959 98.654846,35.059677 
z"/>
<path fill="#0D0D0D" opacity="1.000000" stroke="none" 
	d="
M91.004707,64.017403 
	C90.994736,63.537418 90.984772,63.057430 90.940262,62.218151 
	C92.357025,61.219158 93.808334,60.579464 95.639008,59.861557 
	C98.609726,60.209175 101.201088,60.635002 103.497299,61.513901 
	C101.450470,62.630138 99.698799,63.293304 97.947121,63.956474 
	C97.501511,63.948566 97.055908,63.940655 95.865723,63.955879 
	C93.748993,63.991814 92.376854,64.004608 91.004707,64.017403 
z"/>
<path fill="#ACACAC" opacity="1.000000" stroke="none" 
	d="
M78.735336,32.792419 
	C78.140686,32.576374 77.620628,32.042999 77.080688,31.210802 
	C77.643852,31.433018 78.226883,31.954054 78.735336,32.792419 
z"/>
<path fill="#9E9E9E" opacity="1.000000" stroke="none" 
	d="
M6.973090,99.460968 
	C8.241668,98.912399 9.554922,98.736237 11.337933,98.267456 
	C12.878286,97.971901 13.948882,97.968964 15.019478,97.966034 
	C14.441662,99.771317 13.863845,101.576599 13.120905,103.699829 
	C9.843931,104.230103 7.283294,103.660210 6.973090,99.460968 
z"/>
<path fill="#787878" opacity="1.000000" stroke="none" 
	d="
M15.031992,97.621094 
	C13.948882,97.968964 12.878286,97.971901 11.406874,97.990929 
	C9.779571,96.115234 8.553083,94.223434 7.083670,92.058174 
	C6.861484,91.610657 6.882225,91.436615 7.285924,90.945267 
	C10.458105,89.738564 13.247329,88.849167 16.036552,87.959770 
	C16.323471,89.124870 16.610388,90.289963 17.008919,91.715118 
	C16.634087,92.515923 16.147646,93.056664 15.835291,93.796455 
	C15.687753,95.089058 15.366128,96.182602 15.031992,97.621094 
z"/>
<path fill="#515151" opacity="1.000000" stroke="none" 
	d="
M103.236198,79.740250 
	C100.491982,79.092896 98.147751,78.580505 95.456154,78.062088 
	C95.050140,71.661346 95.025795,71.749313 101.258011,73.474083 
	C103.141571,73.995361 105.200989,73.881256 107.591080,74.444260 
	C107.652954,76.456886 107.303604,78.083466 106.954262,79.710037 
	C105.848236,79.765099 104.742218,79.820160 103.236198,79.740250 
z"/>
<path fill="#636363" opacity="1.000000" stroke="none" 
	d="
M107.308205,79.832703 
	C107.303604,78.083466 107.652954,76.456886 108.025574,74.467499 
	C109.271667,73.263680 110.494499,72.422668 111.964447,71.365730 
	C112.211578,71.149811 112.611198,71.085625 112.802597,71.019592 
	C113.285645,73.413826 113.577301,75.874092 113.947105,78.673569 
	C113.708244,79.741707 113.391228,80.470634 113.082458,81.516434 
	C111.281174,81.207321 109.471664,80.581345 107.308205,79.832703 
z"/>
<path fill="#8C8C8C" opacity="1.000000" stroke="none" 
	d="
M34.309853,6.241009 
	C36.253593,6.103404 38.506779,6.202363 40.885815,6.643846 
	C38.880875,6.816770 36.750084,6.647171 34.309853,6.241009 
z"/>
<path fill="#636363" opacity="1.000000" stroke="none" 
	d="
M52.608475,13.017710 
	C53.373798,13.855517 53.810337,14.760676 54.058800,15.859527 
	C52.996426,17.181889 52.122128,18.310560 51.281876,19.937084 
	C51.080650,20.857014 50.845371,21.279091 50.367706,21.799923 
	C49.801159,22.285540 49.477001,22.672400 48.821999,23.200550 
	C46.997993,27.562147 45.504833,31.782452 43.825520,36.033615 
	C43.639370,36.064468 43.262691,36.087570 42.974716,35.970764 
	C42.130383,35.582680 41.574020,35.311401 40.723747,34.801750 
	C38.285786,33.719097 36.141739,32.874817 34.412971,32.020699 
	C36.480049,32.041782 38.187344,32.332790 39.760899,31.997019 
	C40.582581,31.821688 41.168961,30.543615 41.861618,29.763607 
	C42.497715,23.766285 44.204037,18.307285 49.695652,14.408581 
	C50.707741,13.814091 51.493713,13.449576 52.608475,13.017710 
z"/>
<path fill="#3B3B3B" opacity="1.000000" stroke="none" 
	d="
M20.027395,31.186251 
	C20.018303,29.907797 20.010900,28.842861 20.005173,27.377356 
	C24.160576,25.125320 27.265837,27.695360 30.506832,29.790785 
	C30.261953,30.144346 30.067892,30.185802 29.539532,30.208588 
	C28.422659,31.105040 27.640083,32.020161 26.464159,32.926125 
	C24.047825,32.553295 22.024841,32.189621 20.001858,31.825945 
	C20.001858,31.825945 20.029083,31.399767 20.027395,31.186251 
z"/>
<path fill="#515151" opacity="1.000000" stroke="none" 
	d="
M29.873833,30.227257 
	C30.067892,30.185802 30.261953,30.144346 30.746334,30.036591 
	C34.349075,29.942633 37.661491,29.914970 41.417763,29.825459 
	C41.168961,30.543615 40.582581,31.821688 39.760899,31.997019 
	C38.187344,32.332790 36.480049,32.041782 34.009659,32.013962 
	C32.115826,32.031994 31.040583,32.046913 29.961950,31.754082 
	C29.930319,31.039972 29.902077,30.633614 29.873833,30.227257 
z"/>
<path fill="#5C5C5C" opacity="1.000000" stroke="none" 
	d="
M3.952641,40.474045 
	C9.319788,40.672535 14.686619,41.334373 20.528976,42.251938 
	C21.015448,42.678940 21.026388,42.850220 21.027599,43.467537 
	C21.347723,47.519161 21.947264,51.126167 21.928276,54.729923 
	C21.910809,58.045052 23.277592,59.068626 26.376499,59.027699 
	C32.497311,58.946865 38.621078,59.089989 44.743626,59.140503 
	C44.743626,59.140507 44.883114,59.096832 44.915150,59.446823 
	C44.880970,60.579845 44.814754,61.362873 44.350433,62.217972 
	C39.908527,62.826443 35.864735,63.362843 31.372896,63.925713 
	C22.351271,64.345352 13.777691,64.738533 5.204111,65.131706 
	C4.786849,57.066933 4.369587,49.002163 3.952641,40.474045 
z"/>
<path fill="#606060" opacity="1.000000" stroke="none" 
	d="
M33.202175,70.880875 
	C33.148502,71.328995 33.094830,71.777107 32.991898,72.559792 
	C31.550846,72.945564 30.159058,72.996773 28.134922,73.065048 
	C27.502577,73.082108 27.071201,73.128258 27.071201,73.128258 
	C23.383238,73.121788 19.695274,73.115311 15.096561,73.077484 
	C11.507924,73.062996 8.830035,73.079872 6.152146,73.096741 
	C6.072745,71.736305 5.993343,70.375877 6.353669,68.551239 
	C13.369414,68.064499 19.946623,68.104080 26.520668,67.978363 
	C28.297092,67.944397 30.063936,67.409607 31.927465,67.429588 
	C32.413891,68.796608 32.808033,69.838745 33.202175,70.880875 
z"/>
<path fill="#3B3B3B" opacity="1.000000" stroke="none" 
	d="
M31.835178,67.104698 
	C30.063936,67.409607 28.297092,67.944397 26.520668,67.978363 
	C19.946623,68.104080 13.369414,68.064499 6.328312,68.143219 
	C5.618553,67.394623 5.373877,66.589828 5.166656,65.458374 
	C13.777691,64.738533 22.351271,64.345352 31.411285,64.325653 
	C31.876873,65.500984 31.856026,66.302841 31.835178,67.104698 
z"/>
<path fill="#4D4D4D" opacity="1.000000" stroke="none" 
	d="
M16.042793,87.565628 
	C13.247329,88.849167 10.458105,89.738564 7.307850,90.683273 
	C6.821177,90.509804 6.649354,90.323631 6.219958,89.760139 
	C6.005700,88.893700 6.002831,88.447174 5.999962,88.000648 
	C5.993460,87.819702 5.986958,87.638763 6.236612,87.052475 
	C6.311327,86.094406 6.129888,85.541687 5.948447,84.988960 
	C5.948448,84.988960 6.006153,85.025253 5.986104,85.052933 
	C6.556839,84.280167 7.147622,83.479729 8.144185,82.345779 
	C10.059219,80.956200 11.568474,79.900139 13.077728,78.844078 
	C13.532886,79.460884 13.988043,80.077690 14.651096,80.892929 
	C15.066487,81.923195 15.273983,82.755028 15.724084,83.803406 
	C15.994137,85.070457 16.021584,86.120964 16.042793,87.565628 
z"/>
<path fill="#464646" opacity="1.000000" stroke="none" 
	d="
M13.073077,78.467606 
	C11.568474,79.900139 10.059219,80.956200 8.178391,82.044250 
	C7.218959,79.355789 6.631100,76.635338 6.097693,73.505814 
	C8.830035,73.079872 11.507924,73.062996 14.640864,73.086456 
	C15.095916,73.126793 15.035830,73.538017 15.014360,73.744263 
	C14.351402,75.330719 13.709914,76.710930 13.073077,78.467606 
z"/>
<path fill="#6E6E6E" opacity="1.000000" stroke="none" 
	d="
M21.037331,43.021500 
	C21.026388,42.850220 21.015448,42.678940 20.991953,42.250076 
	C20.988615,40.605484 20.997829,39.218468 21.440228,37.414730 
	C28.233236,37.338528 34.593060,37.679047 40.999763,38.284492 
	C41.313232,38.999958 41.579819,39.450500 41.861347,40.203224 
	C41.602451,41.010429 41.328617,41.515446 40.638947,42.014091 
	C36.643051,41.649223 33.654011,42.503109 32.140545,46.134224 
	C30.516872,50.029739 28.720690,49.105408 26.352903,46.681744 
	C24.877760,45.171791 22.828779,44.222443 21.037331,43.021500 
z"/>
<path fill="#666666" opacity="1.000000" stroke="none" 
	d="
M40.952885,38.019569 
	C34.593060,37.679047 28.233236,37.338528 21.446058,36.998180 
	C21.018705,36.998356 20.565079,36.981079 20.339439,36.976158 
	C20.078484,35.546513 20.043167,34.121784 20.004856,32.261501 
	C22.024841,32.189621 24.047825,32.553295 26.806004,32.938965 
	C28.349247,32.661251 29.157293,32.361546 29.965340,32.061836 
	C31.040583,32.046913 32.115826,32.031994 33.594383,32.023804 
	C36.141739,32.874817 38.285786,33.719097 40.724304,35.173283 
	C40.996815,36.528648 40.974850,37.274109 40.952885,38.019569 
z"/>
<path fill="#848484" opacity="1.000000" stroke="none" 
	d="
M5.712129,87.871201 
	C6.002831,88.447174 6.005700,88.893700 6.046437,89.673920 
	C5.161199,90.088005 4.238093,90.168388 3.096339,90.081566 
	C3.091996,88.707344 3.306302,87.500336 3.751618,85.999649 
	C4.463185,86.384560 4.943741,87.063156 5.712129,87.871201 
z"/>
<path fill="#787878" opacity="1.000000" stroke="none" 
	d="
M5.940127,85.312210 
	C6.129888,85.541687 6.311327,86.094406 6.278267,86.784096 
	C6.019780,86.492531 5.975793,86.063995 5.940127,85.312210 
z"/>
<path fill="#515151" opacity="1.000000" stroke="none" 
	d="
M97.995041,64.321617 
	C99.698799,63.293304 101.450470,62.630138 103.549973,61.906849 
	C103.915520,62.674400 103.933235,63.502071 103.900803,64.745316 
	C101.914749,65.002846 99.978859,64.844803 97.995041,64.321617 
z"/>
<path fill="#D4D4D4" opacity="1.000000" stroke="none" 
	d="
M66.009003,83.006989 
	C70.306870,81.631165 70.368324,83.898170 69.541504,87.261795 
	C66.842934,87.431511 64.798302,87.247581 65.961639,83.351379 
	C66.013817,83.017906 66.000114,83.000114 66.009003,83.006989 
z"/>
<path fill="#9E9E9E" opacity="1.000000" stroke="none" 
	d="
M63.047314,72.107140 
	C65.774254,70.617821 68.645821,69.337090 71.184776,67.576645 
	C73.426659,66.022179 75.297600,63.932739 77.677406,62.047863 
	C77.691879,63.441963 77.361275,64.867714 76.959167,66.659248 
	C75.220596,68.227661 73.271080,69.181221 71.945259,70.684761 
	C69.183792,73.816399 66.072426,75.694984 61.351597,75.130142 
	C60.390724,74.934242 59.859516,74.690887 59.502125,74.225075 
	C60.799732,73.370789 61.923523,72.738960 63.047314,72.107140 
z"/>
<path fill="#ACACAC" opacity="1.000000" stroke="none" 
	d="
M62.658234,72.076035 
	C61.923523,72.738960 60.799732,73.370789 59.307198,74.004272 
	C58.403580,73.820869 57.868706,73.635811 57.157959,73.220726 
	C58.744442,72.675446 60.506794,72.360191 62.658234,72.076035 
z"/>
<path fill="#ACACAC" opacity="1.000000" stroke="none" 
	d="
M55.177773,72.222679 
	C55.533394,72.188034 56.076981,72.382179 56.819435,72.793304 
	C56.467445,72.824013 55.916588,72.637749 55.177773,72.222679 
z"/>
<path fill="#232323" opacity="1.000000" stroke="none" 
	d="
M44.968616,65.031631 
	C44.989029,66.035568 45.009441,67.039497 45.043606,68.419319 
	C41.865837,68.819389 38.674316,68.843575 35.252991,68.199699 
	C36.200207,66.696136 37.284325,65.386726 38.575512,65.133606 
	C40.634106,64.730064 42.830494,65.029472 44.968616,65.031631 
z"/>
<path fill="#0D0D0D" opacity="1.000000" stroke="none" 
	d="
M44.976082,65.023666 
	C42.830494,65.029472 40.634106,64.730064 38.575512,65.133606 
	C37.284325,65.386726 36.200207,66.696136 34.978489,67.956284 
	C34.679886,68.709473 34.425976,69.038002 34.159225,69.599243 
	C33.970963,70.095360 33.777607,70.344864 33.384247,70.730675 
	C32.808033,69.838745 32.413891,68.796608 31.927465,67.429588 
	C31.856026,66.302841 31.876873,65.500984 31.859331,64.299187 
	C35.864735,63.362843 39.908527,62.826443 44.374210,62.227512 
	C44.796101,62.164982 44.797203,62.215672 44.760239,62.567841 
	C44.804089,63.624546 44.884895,64.329086 44.965706,65.033623 
	C44.965706,65.033623 44.983547,65.015694 44.976082,65.023666 
z"/>
<path fill="#B6B6B6" opacity="1.000000" stroke="none" 
	d="
M44.772324,62.155441 
	C44.814754,61.362873 44.880970,60.579845 44.971138,59.399857 
	C46.560791,60.791340 48.126488,62.579781 49.841072,64.688980 
	C49.526707,65.014084 49.063457,65.018425 48.252743,65.030289 
	C47.905281,65.037811 47.503586,64.952446 47.205963,64.611526 
	C46.204628,63.585629 45.500916,62.900650 44.797203,62.215672 
	C44.797203,62.215672 44.796101,62.164982 44.772324,62.155441 
z"/>
<path fill="#5C5C5C" opacity="1.000000" stroke="none" 
	d="
M44.760239,62.567841 
	C45.500916,62.900650 46.204628,63.585629 47.002998,64.580414 
	C46.625896,64.964607 46.154137,65.038986 45.324039,65.073502 
	C44.884895,64.329086 44.804089,63.624546 44.760239,62.567841 
z"/>
<path fill="#232323" opacity="1.000000" stroke="none" 
	d="
M27.164364,73.224091 
	C27.071201,73.128258 27.502577,73.082108 27.718122,73.102867 
	C27.933668,73.123627 27.627882,73.367058 27.627882,73.367058 
	C27.627882,73.367058 27.257528,73.319931 27.164364,73.224091 
z"/>
<path fill="#D4D4D4" opacity="1.000000" stroke="none" 
	d="
M49.152843,23.059259 
	C49.477001,22.672400 49.801159,22.285540 50.797081,21.878384 
	C52.989571,21.410202 54.510300,20.962318 56.031025,20.514435 
	C60.048485,20.873678 64.065941,21.232924 68.715820,21.920082 
	C70.232956,22.498066 71.117683,22.748135 72.002403,22.998203 
	C72.002403,22.998201 72.000000,23.000013 72.000870,22.998657 
	C72.661293,27.015270 73.320854,31.033239 73.962814,35.479034 
	C71.238914,35.948051 68.532600,35.989239 64.990776,36.028049 
	C61.707069,36.055859 59.258873,36.086044 56.434456,36.023010 
	C53.420494,35.787823 50.782753,35.645859 48.119453,35.091805 
	C48.321838,33.435608 48.130676,31.808405 48.853985,31.017101 
	C51.313950,28.325895 50.499329,25.758615 49.152843,23.059259 
z"/>
<path fill="#B6B6B6" opacity="1.000000" stroke="none" 
	d="
M55.687897,20.353790 
	C54.510300,20.962318 52.989571,21.410202 51.039467,21.779625 
	C50.845371,21.279091 51.080650,20.857014 51.394264,20.208687 
	C52.763321,20.052675 54.054047,20.122911 55.687897,20.353790 
z"/>
<path fill="#C5C5C5" opacity="1.000000" stroke="none" 
	d="
M71.889542,22.734859 
	C71.117683,22.748135 70.232956,22.498066 69.125328,21.970001 
	C69.860512,21.951841 70.818596,22.211678 71.889542,22.734859 
z"/>
<path fill="#6E6E6E" opacity="1.000000" stroke="none" 
	d="
M92.208595,70.877777 
	C91.711983,69.343399 91.415298,67.529114 91.564575,65.334846 
	C93.078003,65.063538 94.145485,65.172218 95.212967,65.280899 
	C94.278152,67.053230 93.343338,68.825562 92.208595,70.877777 
z"/>
<path fill="#9E9E9E" opacity="1.000000" stroke="none" 
	d="
M95.438828,65.139076 
	C94.145485,65.172218 93.078003,65.063538 91.611038,64.921509 
	C91.211540,64.888153 91.095505,64.455772 91.050110,64.236588 
	C92.376854,64.004608 93.748993,63.991814 95.534508,64.003677 
	C95.853485,64.351311 95.759094,64.674278 95.438828,65.139076 
z"/>
<path fill="#787878" opacity="1.000000" stroke="none" 
	d="
M21.027599,43.467537 
	C22.828779,44.222443 24.877760,45.171791 26.352903,46.681744 
	C28.720690,49.105408 30.516872,50.029739 32.140545,46.134224 
	C33.654011,42.503109 36.643051,41.649223 40.614613,42.457157 
	C40.482868,47.649681 41.158913,52.107315 44.127193,56.019352 
	C44.307388,56.846653 44.487587,57.673950 44.705704,58.820877 
	C38.621078,59.089989 32.497311,58.946865 26.376499,59.027699 
	C23.277592,59.068626 21.910809,58.045052 21.928276,54.729923 
	C21.947264,51.126167 21.347723,47.519161 21.027599,43.467537 
z"/>
<path fill="#B6B6B6" opacity="1.000000" stroke="none" 
	d="
M44.416725,55.928612 
	C41.158913,52.107315 40.482868,47.649681 41.030449,42.463531 
	C41.328617,41.515446 41.602451,41.010429 42.031609,39.903313 
	C42.545517,38.230003 42.904106,37.158787 43.262691,36.087570 
	C43.262691,36.087570 43.639370,36.064468 44.150185,36.084412 
	C45.477764,36.418159 46.294529,36.731972 47.353371,37.289116 
	C51.093761,39.113560 54.592072,40.694668 58.252022,42.591179 
	C59.227509,45.785313 59.491268,48.486519 55.833015,50.006706 
	C55.355087,49.995216 55.163895,49.991554 55.121254,49.653061 
	C54.630100,48.221375 54.156902,46.329170 53.324074,46.154816 
	C47.234276,44.879932 45.940590,46.368664 46.047859,53.957073 
	C45.600655,54.584003 45.153454,55.210938 44.416725,55.928612 
z"/>
<path fill="#ACACAC" opacity="1.000000" stroke="none" 
	d="
M70.990395,53.003155 
	C71.801620,54.799927 72.612839,56.596699 73.180527,57.854065 
	C70.610397,57.310768 68.399750,56.843460 65.752701,56.703232 
	C64.543907,57.687134 63.771500,58.343948 62.999542,59.000381 
	C63.000000,59.000000 63.000916,58.999264 62.635719,58.983604 
	C58.942917,58.282700 55.872059,57.376190 57.428280,52.886040 
	C62.400478,54.748096 64.503548,50.188480 67.949020,49.037613 
	C67.974960,49.000790 67.934853,49.076660 68.002609,49.390610 
	C69.043709,50.804092 70.017052,51.903622 70.990395,53.003155 
z"/>
<path fill="#ACACAC" opacity="1.000000" stroke="none" 
	d="
M64.066933,67.063965 
	C58.123970,70.235443 56.974125,65.451981 55.567139,61.363724 
	C58.294758,60.340130 60.647835,59.669697 63.000916,58.999264 
	C63.000916,58.999264 63.000000,59.000000 63.379421,59.001644 
	C64.519585,58.988899 65.280327,58.974506 66.041069,58.960117 
	C66.041069,58.960117 66.531197,58.962849 66.761276,59.341110 
	C66.016541,62.167568 65.041740,64.615768 64.066933,67.063965 
z"/>
<path fill="#D4D4D4" opacity="1.000000" stroke="none" 
	d="
M46.461269,53.964844 
	C45.940590,46.368664 47.234276,44.879932 53.324074,46.154816 
	C54.156902,46.329170 54.630100,48.221375 54.952003,49.921455 
	C53.431026,51.691189 52.227848,52.857685 51.024670,54.024185 
	C49.641338,54.006996 48.258011,53.989807 46.461269,53.964844 
z"/>
<path fill="#B6B6B6" opacity="1.000000" stroke="none" 
	d="
M62.635719,58.983604 
	C60.647835,59.669697 58.294758,60.340130 55.523521,61.008785 
	C53.808155,60.571442 52.510937,60.135883 51.341660,59.137455 
	C53.000088,56.383957 54.530586,54.193333 56.243034,52.114841 
	C56.653610,52.401062 56.845139,52.609272 56.999569,52.851608 
	C55.872059,57.376190 58.942917,58.282700 62.635719,58.983604 
z"/>
<path fill="#D4D4D4" opacity="1.000000" stroke="none" 
	d="
M67.036049,45.080704 
	C69.460876,45.153221 71.885712,45.225742 74.662224,45.177338 
	C75.635635,46.476082 76.257362,47.895744 76.623611,49.701523 
	C75.587906,50.727966 74.807678,51.368290 74.027458,52.008614 
	C73.854164,52.013718 73.680862,52.018822 72.966339,51.855400 
	C70.928375,50.816803 69.431610,49.946732 67.934853,49.076660 
	C67.934853,49.076660 67.974960,49.000790 67.922806,48.692467 
	C67.592445,47.282997 67.314247,46.181847 67.036049,45.080704 
z"/>
<path fill="#B6B6B6" opacity="1.000000" stroke="none" 
	d="
M64.429596,67.031563 
	C65.041740,64.615768 66.016541,62.167568 67.006248,59.347790 
	C67.453995,58.973068 67.886841,58.969925 68.667236,59.297012 
	C69.038300,59.845497 69.061798,60.063751 69.085297,60.282001 
	C68.283760,62.923359 68.751442,66.375900 64.429596,67.031563 
z"/>
<path fill="#ACACAC" opacity="1.000000" stroke="none" 
	d="
M56.061085,52.002708 
	C54.530586,54.193333 53.000088,56.383957 51.223228,58.804043 
	C50.896748,57.571938 50.816631,56.110371 50.880592,54.336494 
	C52.227848,52.857685 53.431026,51.691189 54.803452,50.256290 
	C55.163895,49.991554 55.355087,49.995216 55.816429,50.337830 
	C56.078083,51.118755 56.069584,51.560734 56.061085,52.002708 
z"/>
<path fill="#C6C6C6" opacity="1.000000" stroke="none" 
	d="
M68.002609,49.390610 
	C69.431610,49.946732 70.928375,50.816803 72.706345,51.861282 
	C72.510971,52.328739 72.034370,52.621792 71.274078,52.959000 
	C70.017052,51.903622 69.043709,50.804092 68.002609,49.390610 
z"/>
<path fill="#B6B6B6" opacity="1.000000" stroke="none" 
	d="
M66.026611,58.633244 
	C65.280327,58.974506 64.519585,58.988899 63.378967,59.002029 
	C63.771500,58.343948 64.543907,57.687134 65.655830,57.013397 
	C66.000946,57.433105 66.006546,57.869740 66.026611,58.633244 
z"/>
<path fill="#C6C6C6" opacity="1.000000" stroke="none" 
	d="
M74.365341,51.988632 
	C74.807678,51.368290 75.587906,50.727966 76.678665,50.031998 
	C76.227196,50.640457 75.465210,51.304554 74.365341,51.988632 
z"/>
<path fill="#ACACAC" opacity="1.000000" stroke="none" 
	d="
M69.285248,60.183144 
	C69.061798,60.063751 69.038300,59.845497 68.992088,59.298416 
	C69.336708,59.144745 69.704025,59.319897 70.071350,59.495052 
	C69.875969,59.691463 69.680588,59.887875 69.285248,60.183144 
z"/>
<path fill="#C6C6C6" opacity="1.000000" stroke="none" 
	d="
M56.243034,52.114841 
	C56.069584,51.560734 56.078083,51.118755 56.103165,50.345657 
	C59.491268,48.486519 59.227509,45.785313 58.252396,42.207809 
	C58.062737,41.005253 58.034348,40.501469 58.194614,39.798824 
	C57.915977,38.733921 57.448685,37.867878 56.928009,36.782501 
	C56.874626,36.563164 56.810677,36.116234 56.810677,36.116234 
	C59.258873,36.086044 61.707069,36.055859 64.616302,36.044975 
	C64.180031,39.151627 60.177086,42.709923 66.712914,44.899887 
	C67.314247,46.181847 67.592445,47.282997 67.896866,48.729294 
	C64.503548,50.188480 62.400478,54.748096 57.428280,52.886040 
	C56.845139,52.609272 56.653610,52.401062 56.243034,52.114841 
z"/>
<path fill="#C6C6C6" opacity="1.000000" stroke="none" 
	d="
M47.111290,37.045780 
	C46.294529,36.731972 45.477764,36.418159 44.336334,36.053555 
	C45.504833,31.782452 46.997993,27.562147 48.821999,23.200550 
	C50.499329,25.758615 51.313950,28.325895 48.853985,31.017101 
	C48.130676,31.808405 48.321838,33.435608 48.049877,35.312172 
	C47.707668,36.311672 47.409477,36.678726 47.111290,37.045780 
z"/>
<path fill="#515151" opacity="1.000000" stroke="none" 
	d="
M42.974716,35.970764 
	C42.904106,37.158787 42.545517,38.230003 42.016670,39.601128 
	C41.579819,39.450500 41.313232,38.999958 40.999763,38.284492 
	C40.974850,37.274109 40.996815,36.528648 41.018219,35.411655 
	C41.574020,35.311401 42.130383,35.582680 42.974716,35.970764 
z"/>
<path fill="#636363" opacity="1.000000" stroke="none" 
	d="
M29.961952,31.754086 
	C29.157293,32.361546 28.349247,32.661251 27.199356,32.948120 
	C27.640083,32.020161 28.422659,31.105040 29.539534,30.208588 
	C29.902077,30.633614 29.930319,31.039972 29.961952,31.754086 
z"/>
<path fill="#929292" opacity="1.000000" stroke="none" 
	d="
M47.353371,37.289116 
	C47.409477,36.678726 47.707668,36.311672 48.075432,35.724258 
	C50.782753,35.645859 53.420494,35.787823 56.434456,36.023010 
	C56.810677,36.116234 56.874626,36.563164 56.769470,36.996536 
	C57.111526,38.285831 57.558743,39.141758 58.005959,39.997684 
	C58.034348,40.501469 58.062737,41.005253 58.090752,41.892410 
	C54.592072,40.694668 51.093761,39.113560 47.353371,37.289116 
z"/>
<path fill="#B6B6B6" opacity="1.000000" stroke="none" 
	d="
M58.194618,39.798824 
	C57.558743,39.141758 57.111526,38.285831 56.822853,37.215874 
	C57.448685,37.867878 57.915977,38.733921 58.194618,39.798824 
z"/>
</svg>