<svg version="1.1" id="Layer_1" xmlns="http://www.w3.org/2000/svg" xmlns:xlink="http://www.w3.org/1999/xlink" x="0px" y="0px"
	 width="100%" viewBox="0 0 512 512" enable-background="new 0 0 512 512" xml:space="preserve">
<path fill="#FFFFFF" opacity="1.000000" stroke="none" 
	d="
M311.000000,513.000000 
	C207.358505,513.000000 104.217003,513.000000 1.075506,513.000000 
	C1.050337,512.858521 1.003107,512.717102 1.003104,512.575623 
	C0.999983,342.117218 1.000000,171.658813 1.000000,1.000000 
	C86.245605,1.000000 171.491364,1.000000 256.737122,1.000000 
	C342.049652,1.000000 427.362152,1.000000 512.837341,1.000000 
	C512.837341,171.666534 512.837341,342.333252 512.837341,513.000000 
	C445.800262,513.000000 378.650116,513.000000 311.000000,513.000000 
M320.774414,79.038033 
	C320.855682,78.694153 320.936920,78.350281 321.510223,77.400093 
	C322.879822,68.691185 318.608765,63.081329 310.272186,63.068913 
	C275.320923,63.016850 240.368607,62.951504 205.419418,63.232613 
	C201.498047,63.264156 197.117493,64.703308 193.770889,66.800087 
	C183.467987,73.255280 180.235245,83.304146 180.949478,95.808090 
	C181.008148,99.321579 181.066818,102.835068 180.968903,107.052025 
	C181.017975,108.248093 181.067047,109.444168 180.934662,111.492561 
	C180.934662,136.329010 180.934662,161.165451 180.934662,186.567825 
	C194.206863,178.906082 202.526581,169.036407 202.219513,153.291199 
	C201.891891,136.491440 202.044159,119.681099 202.114059,102.875916 
	C202.127731,99.591972 202.723373,96.310440 202.992523,93.018883 
	C202.992523,93.018883 203.036057,93.058472 203.516708,92.699623 
	C203.715607,92.143639 203.914520,91.587662 204.669632,90.710701 
	C206.125183,89.174042 207.580734,87.637390 209.656265,86.006218 
	C209.958603,85.734711 210.260925,85.463196 210.828964,85.238579 
	C210.828964,85.238579 210.998871,85.028984 211.938721,85.012405 
	C214.086426,84.863762 216.234283,84.583542 218.381790,84.586311 
	C248.241119,84.624794 278.100616,84.771072 307.959290,84.667664 
	C311.095886,84.656799 314.227539,83.229248 317.186768,82.138107 
	C317.186768,82.138107 317.403717,82.432053 317.936829,82.243195 
	C318.294098,81.831787 318.651337,81.420380 319.000000,81.000000 
	C319.000000,81.000000 319.008942,81.008667 319.561584,80.798439 
	C319.825409,80.280899 320.089233,79.763359 320.202606,79.144318 
	C320.202606,79.144318 320.295135,79.300438 320.774414,79.038033 
M104.041374,172.057358 
	C104.041374,172.057358 104.240540,172.135605 103.558289,172.598541 
	C103.630005,177.086121 103.701714,181.573700 103.979042,186.146820 
	C103.979042,186.146820 104.103333,185.962036 104.018471,186.604065 
	C104.191208,186.998779 104.363953,187.393494 103.981659,187.954071 
	C103.617271,188.390610 103.252884,188.827164 102.106331,189.452225 
	C95.318733,189.521255 88.522629,189.401443 81.745667,189.706604 
	C73.066628,190.097412 68.360146,194.925491 67.266708,204.575089 
	C67.221565,282.792419 67.173622,361.009735 67.155327,439.227051 
	C67.155029,440.527252 67.515419,441.827484 67.630951,443.898102 
	C68.913284,449.622650 71.760040,453.860626 78.956329,454.983795 
	C195.293747,454.988953 311.631165,454.994476 427.968567,454.993256 
	C428.964203,454.993256 429.959869,454.902527 431.822418,455.011444 
	C438.667847,455.686920 444.157623,453.463562 446.757996,446.838043 
	C447.868591,444.008423 447.934845,440.644714 447.938141,437.523102 
	C448.003448,375.708588 447.991180,313.893982 447.991180,252.079391 
	C447.991180,236.250870 448.025024,220.422150 447.954376,204.593903 
	C447.916290,196.064194 442.900848,190.542694 434.427551,189.537170 
	C432.616089,189.322205 430.770538,189.342056 428.940704,189.341660 
	C372.624634,189.329651 316.308533,189.349716 259.992462,189.316513 
	C234.003632,189.301193 208.014877,189.185104 181.553619,188.567184 
	C180.023804,188.771088 178.493988,188.975006 176.125793,189.323853 
	C174.427338,189.295212 172.728882,189.266571 170.911682,188.452515 
	C170.876205,188.190155 170.840744,187.927780 171.120728,186.820267 
	C171.141785,183.335037 171.275864,179.846130 171.162476,176.365280 
	C170.837021,166.374207 163.596893,159.307449 153.597977,159.261597 
	C143.965530,159.217468 134.319641,159.631882 124.703377,159.249115 
	C115.772903,158.893646 109.274605,162.178558 104.533020,170.389709 
	C104.428749,170.984756 104.324478,171.579819 104.041374,172.057358 
z"/>
<path fill="#264D6E" opacity="1.000000" stroke="none" 
	d="
M78.032043,454.843719 
	C71.760040,453.860626 68.913284,449.622650 68.016197,443.244873 
	C68.599434,441.133209 68.970085,439.674896 68.970657,438.216431 
	C69.000488,361.716980 69.008209,285.217529 68.939522,208.718155 
	C68.938042,207.069031 68.022118,205.420746 67.532776,203.772064 
	C68.360146,194.925491 73.066628,190.097412 81.745667,189.706604 
	C88.522629,189.401443 95.318733,189.521255 102.945015,189.529404 
	C123.069633,189.630844 142.355591,189.675278 161.641495,189.659073 
	C164.771255,189.656448 167.900787,189.385071 171.030426,189.237915 
	C172.728882,189.266571 174.427338,189.295212 176.828598,189.414032 
	C179.029633,189.374390 180.527847,189.244553 182.026077,189.114716 
	C208.014877,189.185104 234.003632,189.301193 259.992462,189.316513 
	C316.308533,189.349716 372.624634,189.329651 428.940704,189.341660 
	C430.770538,189.342056 432.616089,189.322205 434.427551,189.537170 
	C442.900848,190.542694 447.916290,196.064194 447.954376,204.593903 
	C448.025024,220.422150 447.991180,236.250870 447.991180,252.079391 
	C447.991180,313.893982 448.003448,375.708588 447.938141,437.523102 
	C447.934845,440.644714 447.868591,444.008423 446.757996,446.838043 
	C444.157623,453.463562 438.667847,455.686920 431.077545,454.664429 
	C429.015381,454.211761 427.698120,454.013824 426.380829,454.013641 
	C311.849792,453.997375 197.318741,453.992981 82.787704,454.029602 
	C81.202400,454.030090 79.617256,454.560577 78.032043,454.843719 
M112.208397,406.798920 
	C114.031944,407.200623 115.854362,407.945953 117.679214,407.951965 
	C141.250290,408.029419 164.821732,408.000305 188.393066,408.001648 
	C192.259445,408.001862 196.125809,408.019135 200.677246,408.155334 
	C238.615326,430.331573 276.584564,431.088226 314.616425,408.369263 
	C316.304932,407.360596 318.207306,406.709869 320.933807,406.054138 
	C348.873352,406.016113 376.812866,405.978088 405.452759,405.468719 
	C405.631653,404.674988 405.966736,403.881378 405.967133,403.087555 
	C405.994537,351.052246 406.004913,299.016937 405.939667,246.981689 
	C405.938049,245.679214 405.074646,244.377823 403.764709,242.960388 
	C401.171173,242.857315 398.577667,242.754257 395.724884,241.922195 
	C394.837402,241.615585 393.950714,241.044037 393.062347,241.041458 
	C374.786163,240.988235 356.509674,240.973465 338.233795,241.065292 
	C337.159546,241.070679 336.090179,242.039780 334.204376,242.774933 
	C332.808289,242.871841 331.412170,242.968750 329.404724,242.771881 
	C328.604858,242.178406 327.743347,241.652039 327.013977,240.981873 
	C288.548798,205.639130 227.469543,205.912079 189.143448,240.669815 
	C187.974075,241.730331 186.382141,242.324921 184.067795,242.949814 
	C160.142853,242.949814 136.217911,242.949814 111.995934,242.949814 
	C111.995934,297.750305 111.995934,351.883118 112.208397,406.798920 
M331.410645,241.473846 
	C331.410645,241.473846 331.523224,241.408310 331.410645,241.473846 
z"/>
<path fill="#275071" opacity="1.000000" stroke="none" 
	d="
M210.998871,85.028976 
	C210.998871,85.028984 210.828964,85.238579 210.377716,85.240730 
	C209.629730,85.528831 209.333008,85.814781 209.036285,86.100731 
	C207.580734,87.637390 206.125183,89.174042 204.121063,91.022491 
	C203.393677,91.909012 203.214874,92.483742 203.036072,93.058472 
	C203.036057,93.058472 202.992523,93.018883 202.612000,93.022888 
	C201.155197,94.370277 199.297928,95.633804 199.150848,97.072205 
	C198.729233,101.195389 199.057419,105.390656 198.968765,109.554993 
	C198.937943,111.002968 198.549896,112.443344 198.288803,114.119598 
	C197.173386,113.614906 196.697174,113.549263 196.619141,113.337135 
	C196.341568,112.582619 195.950241,111.746643 196.045059,110.997604 
	C196.942642,103.907578 194.645355,97.918854 189.879105,92.779175 
	C188.946976,91.774025 187.802673,90.297462 186.741104,90.284592 
	C185.835434,90.273605 184.974197,92.127808 183.970139,93.018013 
	C183.110062,93.780586 182.075409,94.346268 181.117966,94.999031 
	C180.235245,83.304146 183.467987,73.255280 193.770889,66.800087 
	C197.117493,64.703308 201.498047,63.264156 205.419418,63.232613 
	C240.368607,62.951504 275.320923,63.016850 310.272186,63.068913 
	C318.608765,63.081329 322.879822,68.691185 321.039795,77.850883 
	C320.477936,78.634598 320.386536,78.967514 320.295135,79.300430 
	C320.295135,79.300438 320.202606,79.144318 319.968018,79.253624 
	C319.491913,79.911507 319.250427,80.460083 319.008942,81.008667 
	C319.008942,81.008667 319.000000,81.000000 318.687378,81.033867 
	C318.051056,81.522507 317.727386,81.977280 317.403717,82.432053 
	C317.403717,82.432053 317.186768,82.138107 316.840637,82.201065 
	C314.034332,82.516121 311.574585,82.983513 309.114014,82.987617 
	C278.863159,83.038048 248.612000,82.974297 218.361633,83.107819 
	C215.904602,83.118668 213.453003,84.359619 210.998871,85.028976 
z"/>
<path fill="#264E6E" opacity="1.000000" stroke="none" 
	d="
M105.038513,170.006241 
	C109.274605,162.178558 115.772903,158.893646 124.703377,159.249115 
	C134.319641,159.631882 143.965530,159.217468 153.597977,159.261597 
	C163.596893,159.307449 170.837021,166.374207 171.162476,176.365280 
	C171.275864,179.846130 171.141785,183.335037 170.622711,187.187256 
	C168.757996,187.385651 167.391281,187.217041 165.734573,186.742645 
	C163.638657,186.291229 161.833038,186.023117 160.026794,186.018906 
	C141.385696,185.975479 122.744499,185.974701 104.103333,185.962036 
	C104.103333,185.962036 103.979042,186.146820 103.966248,185.643829 
	C104.049156,180.805771 104.144844,176.470688 104.240540,172.135605 
	C104.240540,172.135605 104.041374,172.057358 104.371574,171.925171 
	C104.814018,171.197388 104.926262,170.601822 105.038513,170.006241 
z"/>
<path fill="#2A5070" opacity="1.000000" stroke="none" 
	d="
M181.033722,95.403564 
	C182.075409,94.346268 183.110062,93.780586 183.970139,93.018013 
	C184.974197,92.127808 185.835434,90.273605 186.741104,90.284592 
	C187.802673,90.297462 188.946976,91.774025 189.879105,92.779175 
	C194.645355,97.918854 196.942642,103.907578 196.045059,110.997604 
	C195.950241,111.746643 196.341568,112.582619 196.619141,113.337135 
	C196.697174,113.549263 197.173386,113.614906 198.288803,114.119598 
	C198.549896,112.443344 198.937943,111.002968 198.968765,109.554993 
	C199.057419,105.390656 198.729233,101.195389 199.150848,97.072205 
	C199.297928,95.633804 201.155197,94.370277 202.641022,93.027344 
	C202.723373,96.310440 202.127731,99.591972 202.114059,102.875916 
	C202.044159,119.681099 201.891891,136.491440 202.219513,153.291199 
	C202.526581,169.036407 194.206863,178.906082 180.934662,186.567825 
	C180.934662,161.165451 180.934662,136.329010 181.470062,111.153145 
	C182.627686,109.730339 183.249924,108.646957 183.872162,107.563576 
	C182.956604,107.158569 182.041046,106.753563 181.125488,106.348557 
	C181.066818,102.835068 181.008148,99.321579 181.033722,95.403564 
z"/>
<path fill="#1A3F61" opacity="1.000000" stroke="none" 
	d="
M67.399742,204.173584 
	C68.022118,205.420746 68.938042,207.069031 68.939522,208.718155 
	C69.008209,285.217529 69.000488,361.716980 68.970657,438.216431 
	C68.970085,439.674896 68.599434,441.133209 68.054466,442.859680 
	C67.515419,441.827484 67.155029,440.527252 67.155327,439.227051 
	C67.173622,361.009735 67.221565,282.792419 67.399742,204.173584 
z"/>
<path fill="#1B3C57" opacity="1.000000" stroke="none" 
	d="
M78.494186,454.913757 
	C79.617256,454.560577 81.202400,454.030090 82.787704,454.029602 
	C197.318741,453.992981 311.849792,453.997375 426.380829,454.013641 
	C427.698120,454.013824 429.015381,454.211761 430.644104,454.585785 
	C429.959869,454.902527 428.964203,454.993256 427.968567,454.993256 
	C311.631165,454.994476 195.293747,454.988953 78.494186,454.913757 
z"/>
<path fill="#3A5A76" opacity="1.000000" stroke="none" 
	d="
M211.468796,85.020691 
	C213.453003,84.359619 215.904602,83.118668 218.361633,83.107819 
	C248.612000,82.974297 278.863159,83.038048 309.114014,82.987617 
	C311.574585,82.983513 314.034332,82.516121 316.927979,82.361488 
	C314.227539,83.229248 311.095886,84.656799 307.959290,84.667664 
	C278.100616,84.771072 248.241119,84.624794 218.381790,84.586311 
	C216.234283,84.583542 214.086426,84.863762 211.468796,85.020691 
z"/>
<path fill="#D2DEE5" opacity="1.000000" stroke="none" 
	d="
M166.024582,187.048447 
	C167.391281,187.217041 168.757996,187.385651 170.464981,187.609818 
	C170.840744,187.927780 170.876205,188.190155 170.971054,188.845215 
	C167.900787,189.385071 164.771255,189.656448 161.641495,189.659073 
	C142.355591,189.675278 123.069633,189.630844 103.336098,189.435150 
	C103.252884,188.827164 103.617271,188.390610 104.604851,187.713440 
	C107.551582,187.404129 109.874878,187.285965 112.198692,187.274689 
	C130.140594,187.187622 148.082611,187.121246 166.024582,187.048447 
z"/>
<path fill="#1D405E" opacity="1.000000" stroke="none" 
	d="
M165.734573,186.742645 
	C148.082611,187.121246 130.140594,187.187622 112.198692,187.274689 
	C109.874878,187.285965 107.551582,187.404129 104.882370,187.630493 
	C104.363953,187.393494 104.191208,186.998779 104.060898,186.283051 
	C122.744499,185.974701 141.385696,185.975479 160.026794,186.018906 
	C161.833038,186.023117 163.638657,186.291229 165.734573,186.742645 
z"/>
<path fill="#D2DEE5" opacity="1.000000" stroke="none" 
	d="
M103.899414,172.367065 
	C104.144844,176.470688 104.049156,180.805771 103.863441,185.601074 
	C103.701714,181.573700 103.630005,177.086121 103.899414,172.367065 
z"/>
<path fill="#D2DEE5" opacity="1.000000" stroke="none" 
	d="
M181.789856,188.840942 
	C180.527847,189.244553 179.029633,189.374390 177.247787,189.341583 
	C178.493988,188.975006 180.023804,188.771088 181.789856,188.840942 
z"/>
<path fill="#275071" opacity="1.000000" stroke="none" 
	d="
M181.047195,106.700287 
	C182.041046,106.753563 182.956604,107.158569 183.872162,107.563576 
	C183.249924,108.646957 182.627686,109.730339 181.560791,110.726982 
	C181.067047,109.444168 181.017975,108.248093 181.047195,106.700287 
z"/>
<path fill="#D2DEE5" opacity="1.000000" stroke="none" 
	d="
M104.785767,170.197968 
	C104.926262,170.601822 104.814018,171.197388 104.460991,171.983917 
	C104.324478,171.579819 104.428749,170.984756 104.785767,170.197968 
z"/>
<path fill="#2A5070" opacity="1.000000" stroke="none" 
	d="
M203.276398,92.879044 
	C203.214874,92.483742 203.393677,91.909012 203.842957,91.182983 
	C203.914520,91.587662 203.715607,92.143639 203.276398,92.879044 
z"/>
<path fill="#3A5A76" opacity="1.000000" stroke="none" 
	d="
M317.670288,82.337616 
	C317.727386,81.977280 318.051056,81.522507 318.691681,81.038353 
	C318.651337,81.420380 318.294098,81.831787 317.670288,82.337616 
z"/>
<path fill="#3A5A76" opacity="1.000000" stroke="none" 
	d="
M319.285278,80.903549 
	C319.250427,80.460083 319.491913,79.911507 320.043243,79.304375 
	C320.089233,79.763359 319.825409,80.280899 319.285278,80.903549 
z"/>
<path fill="#3A5A76" opacity="1.000000" stroke="none" 
	d="
M209.346283,86.053474 
	C209.333008,85.814781 209.629730,85.528831 210.244858,85.217285 
	C210.260925,85.463196 209.958603,85.734711 209.346283,86.053474 
z"/>
<path fill="#3A5A76" opacity="1.000000" stroke="none" 
	d="
M320.534790,79.169235 
	C320.386536,78.967514 320.477936,78.634598 320.793762,78.154037 
	C320.936920,78.350281 320.855682,78.694153 320.534790,79.169235 
z"/>
<path fill="#F1F3F2" opacity="1.000000" stroke="none" 
	d="
M320.010040,405.892426 
	C318.207306,406.709869 316.304932,407.360596 314.616425,408.369263 
	C276.584564,431.088226 238.615326,430.331573 200.146820,407.825745 
	C198.411835,407.008545 197.207260,406.520874 195.971069,405.683777 
	C195.274582,404.411133 194.708557,403.393188 193.929138,402.579712 
	C187.979218,396.369934 181.279114,390.734467 176.139084,383.919647 
	C159.288239,361.578400 152.184372,336.329163 154.928085,308.294403 
	C156.805695,289.109650 163.598465,271.980103 174.942673,256.540741 
	C178.248459,252.041580 181.636749,247.603058 184.987213,243.136734 
	C186.382141,242.324921 187.974075,241.730331 189.143448,240.669815 
	C227.469543,205.912079 288.548798,205.639130 327.013977,240.981873 
	C327.743347,241.652039 328.604858,242.178406 329.861511,243.213242 
	C331.752014,245.473282 333.119965,247.348602 334.629913,249.101639 
	C346.276978,262.623566 354.619568,277.847626 358.630188,295.334900 
	C362.162109,310.735107 362.335968,326.337097 359.440979,341.694580 
	C355.026276,365.113678 342.953827,384.440063 325.235352,400.303192 
	C323.342682,401.997711 321.744720,404.021423 320.010040,405.892426 
M204.960312,258.430756 
	C183.172653,278.010406 173.793777,302.225433 177.934189,331.373718 
	C184.113419,374.875153 222.602676,404.483032 266.529724,400.256256 
	C313.747955,395.712891 349.092316,350.638580 336.197021,299.651611 
	C321.522888,241.631226 252.702499,219.953094 204.960312,258.430756 
z"/>
<path fill="#FDFDFE" opacity="1.000000" stroke="none" 
	d="
M320.471924,405.973267 
	C321.744720,404.021423 323.342682,401.997711 325.235352,400.303192 
	C342.953827,384.440063 355.026276,365.113678 359.440979,341.694580 
	C362.335968,326.337097 362.162109,310.735107 358.630188,295.334900 
	C354.619568,277.847626 346.276978,262.623566 334.629913,249.101639 
	C333.119965,247.348602 331.752014,245.473282 330.167175,243.360138 
	C331.412170,242.968750 332.808289,242.871841 335.069397,242.767303 
	C355.950989,242.723511 375.967560,242.687347 395.984131,242.651184 
	C398.577667,242.754257 401.171173,242.857315 404.194031,243.482117 
	C404.639038,255.666092 404.660980,267.328339 404.669281,278.990601 
	C404.699493,321.307098 404.725098,363.623596 404.752411,405.940063 
	C376.812866,405.978088 348.873352,406.016113 320.471924,405.973267 
z"/>
<path fill="#FEFFFF" opacity="1.000000" stroke="none" 
	d="
M184.527496,243.043274 
	C181.636749,247.603058 178.248459,252.041580 174.942673,256.540741 
	C163.598465,271.980103 156.805695,289.109650 154.928085,308.294403 
	C152.184372,336.329163 159.288239,361.578400 176.139084,383.919647 
	C181.279114,390.734467 187.979218,396.369934 193.929138,402.579712 
	C194.708557,403.393188 195.274582,404.411133 195.511963,405.787964 
	C184.301880,406.230103 173.519196,406.234985 162.736633,406.203400 
	C145.823029,406.153870 128.909500,406.079712 111.995934,406.015961 
	C111.995934,351.883118 111.995934,297.750305 111.995934,242.949814 
	C136.217911,242.949814 160.142853,242.949814 184.527496,243.043274 
z"/>
<path fill="#1D405E" opacity="1.000000" stroke="none" 
	d="
M112.102165,406.407440 
	C128.909500,406.079712 145.823029,406.153870 162.736633,406.203400 
	C173.519196,406.234985 184.301880,406.230103 195.543610,406.137390 
	C197.207260,406.520874 198.411835,407.008545 199.804291,407.762329 
	C196.125809,408.019135 192.259445,408.001862 188.393066,408.001648 
	C164.821732,408.000305 141.250290,408.029419 117.679214,407.951965 
	C115.854362,407.945953 114.031944,407.200623 112.102165,406.407440 
z"/>
<path fill="#183A57" opacity="1.000000" stroke="none" 
	d="
M405.102600,405.704407 
	C404.725098,363.623596 404.699493,321.307098 404.669281,278.990601 
	C404.660980,267.328339 404.639038,255.666092 404.618256,243.539871 
	C405.074646,244.377823 405.938049,245.679214 405.939667,246.981689 
	C406.004913,299.016937 405.994537,351.052246 405.967133,403.087555 
	C405.966736,403.881378 405.631653,404.674988 405.102600,405.704407 
z"/>
<path fill="#1C4464" opacity="1.000000" stroke="none" 
	d="
M395.854492,242.286682 
	C375.967560,242.687347 355.950989,242.723511 335.476501,242.660034 
	C336.090179,242.039780 337.159546,241.070679 338.233795,241.065292 
	C356.509674,240.973465 374.786163,240.988235 393.062347,241.041458 
	C393.950714,241.044037 394.837402,241.615585 395.854492,242.286682 
z"/>
<path fill="#1C4464" opacity="1.000000" stroke="none" 
	d="
M331.466919,241.441071 
	C331.523224,241.408310 331.410645,241.473846 331.466919,241.441071 
z"/>
<path fill="#20A4F3" opacity="1.000000" stroke="none" 
	d="
M205.234467,258.205200 
	C252.702499,219.953094 321.522888,241.631226 336.197021,299.651611 
	C349.092316,350.638580 313.747955,395.712891 266.529724,400.256256 
	C222.602676,404.483032 184.113419,374.875153 177.934189,331.373718 
	C173.793777,302.225433 183.172653,278.010406 205.234467,258.205200 
M243.376801,363.232300 
	C260.940704,370.368073 282.763000,363.302155 294.164429,348.405365 
	C310.288727,327.337769 307.078644,298.642059 284.099518,282.207886 
	C268.967590,271.385834 252.242249,270.875763 236.139160,279.774445 
	C222.601730,287.255341 213.392685,298.875488 212.106400,314.918884 
	C210.358261,336.722626 222.067734,354.681152 243.376801,363.232300 
z"/>
<path fill="#0B8CE7" opacity="1.000000" stroke="none" 
	d="
M242.997238,363.131165 
	C222.067734,354.681152 210.358261,336.722626 212.106400,314.918884 
	C213.392685,298.875488 222.601730,287.255341 236.139160,279.774445 
	C252.242249,270.875763 268.967590,271.385834 284.099518,282.207886 
	C307.078644,298.642059 310.288727,327.337769 294.164429,348.405365 
	C282.763000,363.302155 260.940704,370.368073 242.997238,363.131165 
z"/>
</svg>